<svg width="50" height="50" viewBox="0 0 50 50" fill="none" xmlns="http://www.w3.org/2000/svg">
<path d="M2.00003 24.7874C2.00003 37.3698 12.216 47.5748 24.8242 47.5748C37.4325 47.5748 47.6484 37.3698 47.6484 24.7874C47.6484 12.2051 37.4325 2 24.8242 2C12.216 2 2.00003 12.2051 2.00003 24.7874Z" fill="#FFE4CF" stroke="#FFF5EE" stroke-width="4"/>
<path d="M26.8811 34.4899H22.8012C22.538 34.4899 22.3246 34.2618 22.3246 33.9813V33.8678C22.3246 33.5868 22.538 33.3593 22.8012 33.3593H26.8811C27.1444 33.3593 27.3577 33.5868 27.3577 33.8678V33.9813C27.3577 34.2618 27.1444 34.4899 26.8811 34.4899Z" fill="#FF811B"/>
<path d="M22.8012 35.9482H26.8811C27.1444 35.9482 27.3577 35.7207 27.3577 35.4402V35.3261C27.3577 35.0456 27.1444 34.8181 26.8811 34.8181H22.8012C22.538 34.8181 22.3246 35.0456 22.3246 35.3261V35.4402C22.3246 35.7207 22.538 35.9482 22.8012 35.9482Z" fill="#FF811B"/>
<path d="M25.7034 36.1954V36.4133C25.7034 36.7377 25.4573 37.0001 25.1534 37.0001H24.5239C24.22 37.0001 23.9739 36.7372 23.9739 36.4133V36.1954H25.704H25.7034Z" fill="#FF811B"/>
<path d="M24.4515 17.8567C23.9727 17.3787 23.3117 17.0826 22.5809 17.0826C21.8722 17.0826 21.2283 17.3626 20.7522 17.8177C20.7302 17.8385 20.7098 17.8615 20.6889 17.8835C20.6836 17.8883 20.6782 17.8921 20.6728 17.8974C20.6632 17.9076 20.6546 17.9188 20.6455 17.929C20.609 17.9681 20.5742 18.0082 20.5404 18.0495C20.5238 18.0693 20.5066 18.0896 20.4906 18.1094C20.452 18.1592 20.416 18.2106 20.3812 18.2631C20.3726 18.2759 20.363 18.2887 20.3544 18.3016C20.311 18.3696 20.2697 18.4397 20.2321 18.512C20.2321 18.512 20.2316 18.5125 20.2316 18.513C20.1957 18.5826 20.163 18.6538 20.134 18.7272C20.1319 18.7315 20.1297 18.7357 20.1281 18.7406C20.1217 18.7561 20.1174 18.7716 20.1115 18.7871C20.0911 18.8401 20.0718 18.8937 20.0558 18.9483C20.0466 18.9782 20.0386 19.0077 20.0306 19.0377C20.0182 19.081 20.0075 19.1255 19.9979 19.1699C19.9893 19.209 19.9818 19.2486 19.9753 19.2887C19.9721 19.3059 19.9678 19.3225 19.9652 19.3396C19.9507 19.346 19.9373 19.3535 19.9228 19.3594C19.9207 19.361 19.9185 19.361 19.9158 19.3621C19.8965 19.3707 19.8783 19.3808 19.859 19.3899C19.7931 19.4215 19.7271 19.4526 19.6633 19.4874C19.629 19.5056 19.5963 19.5248 19.5631 19.5441C19.5116 19.5735 19.4601 19.6024 19.4108 19.634C19.3695 19.6597 19.3298 19.687 19.2896 19.7138C19.2494 19.7411 19.2098 19.7679 19.1706 19.7962C19.1261 19.8289 19.0827 19.8632 19.0393 19.8974C19.0066 19.9231 18.9744 19.9483 18.9428 19.9745C18.8972 20.0125 18.8532 20.0521 18.8098 20.0917C18.7814 20.1174 18.7535 20.1431 18.7262 20.1694C18.6827 20.2111 18.6404 20.2534 18.5991 20.2973C18.5728 20.3252 18.5466 20.3519 18.5214 20.3808C18.4822 20.4242 18.4442 20.4686 18.4066 20.5136C18.3804 20.5452 18.3546 20.5773 18.3294 20.6094C18.2957 20.6522 18.263 20.6961 18.2302 20.7406C18.2185 20.7577 18.2045 20.7738 18.1922 20.7914C18.1793 20.8102 18.1681 20.8294 18.1552 20.8482C18.1386 20.8728 18.1209 20.8958 18.1048 20.9204C18.0892 20.9445 18.0753 20.9702 18.0608 20.9943C18.0362 21.0339 18.0126 21.073 17.9895 21.1132C17.9622 21.1603 17.9364 21.2085 17.9113 21.2561C17.8882 21.3005 17.8657 21.3444 17.8437 21.3894C17.8217 21.4349 17.8013 21.4815 17.781 21.528C17.7595 21.5768 17.7386 21.6255 17.7193 21.6753C17.7022 21.7202 17.6861 21.7652 17.67 21.8112C17.6512 21.8632 17.633 21.9156 17.6164 21.9686C17.6024 22.0141 17.5906 22.0607 17.5783 22.1062C17.5638 22.1597 17.5488 22.2133 17.536 22.2679C17.5247 22.3177 17.5156 22.368 17.5065 22.4178C17.4963 22.4702 17.4856 22.5216 17.4775 22.5741C17.4684 22.6346 17.4625 22.6961 17.4561 22.7572C17.4513 22.8 17.4454 22.8428 17.4421 22.8867C17.4341 22.9927 17.4298 23.0992 17.4298 23.2063C17.4298 23.3075 17.4341 23.4081 17.4411 23.5077C17.4432 23.5366 17.447 23.5655 17.4496 23.5944C17.4561 23.6656 17.4636 23.7368 17.4738 23.8075C17.4781 23.838 17.484 23.8691 17.4888 23.8996C17.5 23.9692 17.5129 24.0382 17.5285 24.1073C17.5344 24.134 17.5408 24.1608 17.5472 24.1876C17.5563 24.2245 17.5633 24.2631 17.5735 24.2995C17.5853 24.345 17.5998 24.3889 17.6132 24.4338C17.6142 24.4381 17.6153 24.4424 17.6169 24.4467C17.6764 24.6394 17.7493 24.8262 17.8346 25.0066C17.8378 25.0131 17.8405 25.0189 17.8437 25.0254C17.8576 25.0537 17.8705 25.0827 17.8844 25.1105C17.8646 25.1501 17.8464 25.1897 17.8276 25.2299C17.8239 25.2379 17.8201 25.2459 17.8169 25.2534C17.7182 25.4676 17.6357 25.6903 17.574 25.9215C17.5697 25.937 17.5671 25.9531 17.5628 25.9686C17.5617 25.9735 17.5606 25.9777 17.559 25.9826C17.5547 25.9997 17.552 26.0179 17.5472 26.035C17.5322 26.0976 17.5177 26.1608 17.5054 26.2245C17.5006 26.2524 17.4963 26.2797 17.4915 26.307C17.4813 26.3659 17.4711 26.4242 17.4641 26.4831C17.4588 26.5238 17.4561 26.5645 17.4518 26.6046C17.447 26.6517 17.4416 26.6988 17.4389 26.7465C17.433 26.8348 17.4298 26.9226 17.4298 27.0109C17.4298 27.012 17.4298 27.0136 17.4298 27.0141C17.4298 27.1239 17.4341 27.2325 17.4427 27.3401C17.4459 27.3889 17.4534 27.4365 17.4593 27.4847C17.4657 27.5431 17.4706 27.6014 17.4797 27.6587C17.4888 27.7165 17.5011 27.7732 17.5124 27.83C17.5215 27.8771 17.529 27.9242 17.5403 27.9708C17.5537 28.0281 17.5703 28.0837 17.5858 28.1405C17.5982 28.186 17.6094 28.232 17.6239 28.2775C17.6405 28.3294 17.6593 28.3798 17.6775 28.4306C17.6952 28.4793 17.7113 28.5286 17.7306 28.5768C17.7483 28.6207 17.7681 28.6635 17.7874 28.7069C17.811 28.7609 17.834 28.8155 17.8603 28.868C17.8775 28.9028 17.8962 28.9365 17.9145 28.9713C17.9461 29.0313 17.9772 29.0912 18.0115 29.149C18.0271 29.1753 18.0437 29.2004 18.0598 29.2261C18.0903 29.2759 18.1198 29.3262 18.1525 29.375C18.1622 29.3894 18.1734 29.4023 18.1831 29.4167C18.1863 29.4215 18.189 29.4263 18.1922 29.4312C18.2045 29.4488 18.219 29.4654 18.2313 29.4831C18.2742 29.542 18.3176 29.6009 18.3632 29.6576C18.3712 29.6678 18.3804 29.6774 18.3884 29.6881C18.6066 29.9537 18.8581 30.1924 19.1368 30.3996C19.1631 30.4194 19.1883 30.4397 19.2146 30.4585C19.2548 30.4868 19.2971 30.5125 19.3379 30.5398C19.3835 30.5698 19.4285 30.5998 19.4757 30.6282C19.5089 30.648 19.5432 30.6667 19.577 30.686C19.6349 30.7186 19.6923 30.7502 19.7512 30.7802C19.7807 30.7952 19.8108 30.8086 19.8402 30.823C19.8821 30.8428 19.9228 30.8643 19.9652 30.8825C19.9678 30.8985 19.9716 30.914 19.9743 30.9301C19.9828 30.9826 19.992 31.034 20.0038 31.0854C20.0091 31.1084 20.0156 31.1314 20.0214 31.1544C20.0686 31.3386 20.1346 31.5141 20.2182 31.6806C20.2252 31.6946 20.2311 31.709 20.2386 31.7235C20.2622 31.7684 20.2884 31.8113 20.3142 31.8546C20.3287 31.8787 20.3431 31.9028 20.3576 31.9264C20.3833 31.9665 20.4107 32.0045 20.4386 32.0436C20.4568 32.0682 20.475 32.0934 20.4938 32.1175C20.5222 32.1539 20.5511 32.1897 20.5812 32.2245C20.6021 32.2481 20.6235 32.2711 20.645 32.2947C20.6669 32.3182 20.6873 32.3434 20.7098 32.3659C20.72 32.376 20.7307 32.3835 20.7404 32.3937C20.7441 32.3974 20.7474 32.4012 20.7517 32.4049C20.7645 32.4173 20.7785 32.428 20.7919 32.4403C20.8364 32.481 20.8809 32.5211 20.928 32.5591C20.9463 32.573 20.965 32.5859 20.9838 32.5998C21.0315 32.6362 21.0792 32.6721 21.1296 32.7053C21.1505 32.7187 21.172 32.7304 21.1924 32.7433C21.2422 32.7738 21.2921 32.8048 21.3441 32.8316C21.3682 32.8444 21.3939 32.8557 21.4186 32.868C21.469 32.8926 21.5189 32.9178 21.5714 32.9392C21.6009 32.951 21.6314 32.9606 21.662 32.9719C21.7108 32.9901 21.759 33.0093 21.8094 33.0243C21.8464 33.035 21.8845 33.0436 21.9226 33.0532C21.9676 33.065 22.0121 33.0779 22.0577 33.087C22.1064 33.0966 22.1568 33.103 22.2062 33.1094C22.2426 33.1148 22.2785 33.1223 22.3155 33.126C22.4029 33.1351 22.4914 33.1394 22.5815 33.1394C23.3122 33.1394 23.9738 32.8434 24.452 32.3653C24.9308 31.8873 25.2272 31.2272 25.2272 30.4976V19.7261C25.2272 18.997 24.9308 18.3364 24.452 17.8583L24.4515 17.8567ZM24.4 30.4959C24.4 30.9976 24.1963 31.4515 23.8671 31.7807C23.5379 32.1094 23.0833 32.3123 22.5804 32.3123C22.5182 32.3123 22.4571 32.3091 22.3965 32.3032C22.3836 32.3022 22.3724 32.2995 22.3606 32.2979C22.3118 32.292 22.2635 32.2856 22.2164 32.2759C22.2062 32.2738 22.1971 32.2711 22.1869 32.269C22.1381 32.2577 22.0893 32.2459 22.0416 32.2315C22.0351 32.2294 22.0292 32.2267 22.0228 32.2251C21.9724 32.209 21.9226 32.1913 21.8738 32.171C21.87 32.1694 21.8668 32.1673 21.863 32.1656C21.8127 32.1442 21.7628 32.1207 21.7145 32.0944C21.7124 32.0934 21.7103 32.0918 21.7081 32.0907C21.6588 32.0639 21.6111 32.0345 21.5644 32.0034C21.5623 32.0024 21.5612 32.0013 21.5596 32.0002C21.513 31.9686 21.4685 31.9355 21.4256 31.8996C21.4229 31.8974 21.4207 31.8958 21.4186 31.8937C21.3773 31.8589 21.3366 31.8225 21.298 31.7834C21.2942 31.7791 21.2899 31.7748 21.2856 31.7706C21.2497 31.7336 21.2149 31.6962 21.1822 31.6565C21.1768 31.6501 21.172 31.6432 21.1666 31.6367C21.1361 31.5987 21.106 31.5591 21.0782 31.5184C21.0728 31.5104 21.068 31.5024 21.0626 31.4949C21.0358 31.4547 21.0101 31.4135 20.987 31.3707C20.9822 31.3621 20.9779 31.353 20.9731 31.3439C20.9506 31.3011 20.9291 31.2577 20.9098 31.2133C20.9061 31.2037 20.9023 31.194 20.898 31.1844C20.8798 31.1399 20.8632 31.0944 20.8482 31.0484C20.8449 31.0377 20.8423 31.027 20.839 31.0163C20.8256 30.9703 20.8133 30.9242 20.8031 30.8771C20.7999 30.8648 20.7983 30.8525 20.7956 30.8402C20.787 30.7941 20.7795 30.7481 20.7747 30.7004C20.7731 30.6854 20.772 30.671 20.7704 30.656C20.7661 30.6035 20.7624 30.5506 20.7624 30.4965C20.7624 30.2786 20.801 30.065 20.875 29.8648C20.9495 29.6646 21.0589 29.4777 21.1999 29.3134C21.3478 29.1405 21.328 28.8808 21.1548 28.7331C20.9817 28.5853 20.7216 28.6057 20.5731 28.7781C20.3678 29.0179 20.208 29.2904 20.0997 29.5811C20.052 29.7085 20.0172 29.8402 19.9898 29.9729C19.978 29.9665 19.9657 29.9601 19.9539 29.9531C19.9271 29.9376 19.9008 29.9215 19.8746 29.9055C19.8284 29.8776 19.7829 29.8482 19.7384 29.8182C19.7121 29.8005 19.6869 29.7818 19.6612 29.7631C19.6177 29.7315 19.5749 29.6994 19.533 29.6662C19.5094 29.648 19.4864 29.6282 19.4639 29.6089C19.421 29.573 19.3792 29.5366 19.3384 29.4986C19.3197 29.4809 19.3009 29.4627 19.2827 29.4445C19.2392 29.4028 19.1969 29.36 19.1561 29.3161C19.1427 29.3016 19.1304 29.2872 19.1181 29.2727C19.0736 29.2229 19.0296 29.1726 18.9889 29.1201C18.9819 29.1116 18.976 29.1025 18.969 29.0939C18.9235 29.035 18.8784 28.9751 18.8366 28.913C18.6055 28.5704 18.4361 28.1854 18.3418 27.7754C18.3412 27.7722 18.3412 27.77 18.3402 27.7674C18.3225 27.6892 18.3069 27.6094 18.2951 27.5297C18.2914 27.505 18.2898 27.481 18.2865 27.4563C18.2785 27.3969 18.2705 27.3364 18.2656 27.2764C18.2592 27.1897 18.2554 27.1025 18.2554 27.0147C18.2554 27.0136 18.2554 27.0125 18.2554 27.0115C18.256 26.9392 18.2581 26.8675 18.2624 26.7963C18.2651 26.762 18.2688 26.7272 18.2721 26.6924C18.2758 26.656 18.2785 26.6196 18.2828 26.5832C18.2881 26.5377 18.2962 26.4922 18.3042 26.4467C18.308 26.4231 18.3112 26.399 18.316 26.376C18.3262 26.3214 18.3385 26.2679 18.3519 26.2138C18.3552 26.201 18.3578 26.1876 18.3616 26.1747C18.375 26.1212 18.3906 26.0682 18.4066 26.0152C18.4115 25.9997 18.4157 25.9847 18.4211 25.9692C18.4249 25.9563 18.4297 25.9451 18.434 25.9328C18.8205 26.3889 19.3063 26.7652 19.867 27.027C20.0011 27.3466 20.1957 27.6351 20.4375 27.8766C20.8852 28.3236 21.4942 28.6078 22.1681 28.6432C22.2705 28.7235 22.3563 28.823 22.4185 28.9354C22.4957 29.0757 22.538 29.2358 22.538 29.4023C22.538 29.557 22.5021 29.7063 22.4362 29.8375C22.3697 29.9692 22.2726 30.0864 22.1499 30.1774C21.9671 30.3129 21.9285 30.5703 22.0641 30.7529C22.1997 30.9354 22.4576 30.974 22.6399 30.8386C22.8667 30.6694 23.0474 30.451 23.1717 30.2042C23.2967 29.9569 23.3637 29.6828 23.3637 29.4023C23.3637 29.096 23.2849 28.8 23.1406 28.5388C23.1369 28.5313 23.1315 28.5248 23.1278 28.5179C23.384 28.4344 23.628 28.3118 23.8505 28.1528C24.0349 28.02 24.0767 27.7631 23.9438 27.5789C23.8108 27.3942 23.5535 27.3525 23.369 27.4852C23.2152 27.5955 23.0447 27.6806 22.8656 27.7384C22.6892 27.7952 22.501 27.8246 22.3075 27.8246C21.8051 27.8246 21.3505 27.6207 21.0208 27.2925C20.6916 26.9644 20.4884 26.5093 20.4884 26.0082C20.4884 25.7615 20.5367 25.5222 20.6283 25.3043C20.7216 25.0843 20.8583 24.8814 21.0342 24.7095C21.1961 24.55 21.1988 24.2893 21.039 24.1276C20.8793 23.9659 20.6182 23.9633 20.4562 24.1228C20.2032 24.3701 20.0054 24.664 19.8697 24.9852C19.74 25.2936 19.6703 25.6239 19.6644 25.9595C19.3331 25.7208 19.0489 25.4263 18.8253 25.0923C18.7819 25.027 18.7406 24.9601 18.702 24.8915C18.6924 24.8749 18.6843 24.8578 18.6747 24.8412C18.6452 24.7877 18.6163 24.7336 18.59 24.6779C18.5814 24.6608 18.5739 24.6431 18.5664 24.6255C18.5407 24.5709 18.5165 24.5152 18.4946 24.459C18.4865 24.4392 18.4785 24.4183 18.4715 24.3974C18.4517 24.3439 18.4324 24.2893 18.4147 24.2336C18.4077 24.2106 18.4007 24.1881 18.3938 24.1646C18.3777 24.11 18.3627 24.0543 18.3493 23.9981C18.3439 23.9761 18.3385 23.9547 18.3343 23.9328C18.3219 23.876 18.3112 23.8187 18.3016 23.7609C18.2978 23.7384 18.2935 23.7165 18.2908 23.6935C18.2823 23.634 18.2758 23.5741 18.2705 23.5141C18.2688 23.4927 18.2656 23.4724 18.264 23.451C18.2581 23.3696 18.2549 23.2882 18.2549 23.2063C18.2549 23.1201 18.2587 23.0339 18.2651 22.9494C18.2683 22.9076 18.2742 22.8664 18.279 22.8246C18.2833 22.7829 18.2871 22.7411 18.293 22.7004C18.301 22.6469 18.3117 22.5939 18.3225 22.5409C18.3284 22.5136 18.3326 22.4852 18.3391 22.4579C18.3525 22.399 18.368 22.3407 18.3847 22.2829C18.3905 22.2625 18.3954 22.2422 18.4013 22.2224C18.42 22.1613 18.4409 22.1014 18.4624 22.042C18.4683 22.0254 18.4742 22.0093 18.4801 21.9932C18.5031 21.9328 18.5283 21.8733 18.5546 21.8144C18.5616 21.7995 18.568 21.7845 18.5755 21.7695C18.6023 21.7111 18.6323 21.6539 18.6624 21.5971C18.6704 21.5821 18.6784 21.5671 18.687 21.5521C18.7176 21.4975 18.7498 21.444 18.7835 21.391C18.7943 21.3744 18.8044 21.3578 18.8157 21.3412C18.8473 21.2925 18.8811 21.2448 18.9154 21.1983C18.932 21.1763 18.9487 21.1538 18.9653 21.1324C18.998 21.0907 19.0312 21.0484 19.0655 21.0088C19.0854 20.9852 19.1063 20.9622 19.1272 20.9392C19.1615 20.9012 19.1958 20.8637 19.2323 20.8273C19.2543 20.8043 19.2778 20.7829 19.3009 20.7604C19.3379 20.7256 19.3749 20.6892 19.4135 20.6555C19.4355 20.6367 19.4585 20.6185 19.481 20.5998C19.5234 20.5644 19.5652 20.5297 19.6097 20.4959C19.6263 20.4841 19.6435 20.4724 19.6601 20.4606C19.7121 20.4231 19.7641 20.3851 19.8188 20.3503C19.8199 20.3498 19.8209 20.3492 19.822 20.3482C19.8762 20.3134 19.9325 20.2813 19.9893 20.2491C20.037 20.4825 20.1147 20.7074 20.222 20.9188C20.3169 21.1057 20.4343 21.2807 20.571 21.4408C20.46 21.4788 20.3512 21.5227 20.2461 21.5746C19.8858 21.7529 19.5663 22.0125 19.3164 22.3396C19.1776 22.52 19.2124 22.7791 19.3936 22.9167C19.5749 23.0548 19.8333 23.0206 19.9716 22.8396C20.1442 22.6142 20.3635 22.4349 20.6112 22.3134C20.8573 22.1913 21.1334 22.1255 21.4186 22.1255C21.9209 22.1255 22.3756 22.3294 22.7048 22.6576C23.0339 22.9858 23.2377 23.4402 23.2377 23.9419C23.2377 24.1892 23.1889 24.4279 23.0967 24.6458C23.0045 24.8664 22.8672 25.0693 22.6908 25.2411C22.5289 25.4006 22.5262 25.6608 22.6865 25.8225C22.8458 25.9842 23.1069 25.9868 23.2688 25.8273C23.5218 25.5805 23.7197 25.2861 23.8548 24.9649C23.9909 24.6415 24.0633 24.2936 24.0633 23.9413C24.0633 23.2122 23.7674 22.5516 23.2881 22.0735C23.1926 21.9777 23.0876 21.8921 22.9782 21.8118C23.0629 21.7524 23.1428 21.687 23.2157 21.6142C23.5309 21.2984 23.7272 20.8626 23.7272 20.3814C23.7272 20.1554 23.6827 19.9338 23.599 19.7266C23.5159 19.5216 23.3926 19.3321 23.2334 19.1683C23.0747 19.0056 22.8141 19.0018 22.6506 19.1597C22.4876 19.3182 22.4844 19.5789 22.6426 19.7416C22.7246 19.8257 22.7895 19.9263 22.834 20.0355C22.8779 20.1437 22.9005 20.2609 22.9005 20.3808C22.9005 20.6346 22.7975 20.8637 22.6313 21.0297C22.4651 21.1961 22.2351 21.2984 21.981 21.2984C21.8818 21.2984 21.7842 21.2823 21.692 21.2523C21.5982 21.2213 21.5103 21.1763 21.4331 21.119C21.4159 21.1062 21.3972 21.0966 21.3789 21.0869C21.2041 20.9333 21.0599 20.7507 20.957 20.5468C20.8299 20.2968 20.7608 20.0152 20.7608 19.7245C20.7608 19.6747 20.7634 19.6255 20.7677 19.5762C20.7688 19.5596 20.7704 19.5425 20.7726 19.5248C20.7769 19.4836 20.7828 19.4424 20.7903 19.4017C20.7935 19.3851 20.7967 19.368 20.8004 19.3514C20.8085 19.3118 20.8176 19.2738 20.8289 19.2352C20.8337 19.217 20.839 19.1988 20.8449 19.1811C20.8557 19.1447 20.8685 19.1089 20.8819 19.0741C20.8894 19.0548 20.8969 19.0361 20.905 19.0168C20.9189 18.9841 20.9334 18.9515 20.9495 18.9194C20.9602 18.8985 20.9704 18.8776 20.9817 18.8567C20.9977 18.8284 21.0133 18.8005 21.0304 18.7732C21.0449 18.7497 21.0594 18.7272 21.0744 18.7052C21.091 18.6806 21.1076 18.6576 21.1253 18.634C21.143 18.6105 21.1613 18.5875 21.18 18.5655C21.1977 18.5441 21.2159 18.5227 21.2347 18.5023C21.2631 18.4708 21.2921 18.4397 21.3226 18.4103C21.6481 18.0992 22.0909 17.9076 22.5804 17.9076C23.0827 17.9076 23.5374 18.1105 23.8671 18.4392C24.1963 18.7679 24.4 19.2224 24.4 19.7234V30.4949V30.4959Z" fill="#FF811B"/>
<path d="M32.2178 27.0109C32.2173 26.9226 32.2146 26.8343 32.2087 26.7465C32.2055 26.6988 32.1996 26.6517 32.1953 26.6046C32.191 26.5645 32.1883 26.5238 32.1835 26.4831C32.176 26.4242 32.1658 26.3659 32.1562 26.307C32.1513 26.2791 32.1476 26.2518 32.1422 26.2245C32.1304 26.1608 32.116 26.0982 32.1009 26.035C32.0967 26.0173 32.094 25.9997 32.0891 25.9826C32.0881 25.9777 32.087 25.9735 32.0854 25.9686C32.0816 25.9531 32.0784 25.937 32.0747 25.9215C32.0125 25.6903 31.9305 25.4676 31.8313 25.2534C31.8275 25.2459 31.8238 25.2379 31.82 25.2299C31.8012 25.1903 31.783 25.1501 31.7632 25.1105C31.7777 25.0827 31.79 25.0537 31.8034 25.0254C31.8066 25.0189 31.8093 25.0131 31.813 25.0066C31.8983 24.8262 31.9712 24.6399 32.0307 24.4467C32.0318 24.4424 32.0329 24.4381 32.0345 24.4338C32.0479 24.3889 32.0623 24.3444 32.0741 24.2995C32.0838 24.2625 32.0913 24.2245 32.0999 24.1876C32.1063 24.1608 32.1127 24.134 32.1186 24.1073C32.1336 24.0382 32.1465 23.9692 32.1578 23.8996C32.1631 23.8691 32.1685 23.838 32.1728 23.8075C32.183 23.7368 32.1905 23.6656 32.1969 23.5944C32.1996 23.5655 32.2033 23.5366 32.2055 23.5077C32.2125 23.4081 32.2167 23.3075 32.2167 23.2063C32.2167 23.0992 32.2119 22.9927 32.2044 22.8867C32.2012 22.8434 32.1948 22.8005 32.1899 22.7572C32.183 22.6956 32.1776 22.6346 32.168 22.5741C32.1599 22.5216 32.1492 22.4702 32.1395 22.4178C32.1299 22.368 32.1213 22.3177 32.1095 22.2679C32.0972 22.2133 32.0822 22.1597 32.0677 22.1062C32.0548 22.0602 32.043 22.0141 32.0291 21.9681C32.0125 21.9151 31.9942 21.8632 31.976 21.8112C31.9599 21.7652 31.9444 21.7202 31.9267 21.6753C31.9069 21.6255 31.8865 21.5768 31.865 21.5286C31.8441 21.482 31.8243 21.4354 31.8018 21.3894C31.7803 21.3444 31.7578 21.3005 31.7348 21.2561C31.709 21.2079 31.6838 21.1597 31.6565 21.1132C31.6334 21.073 31.6098 21.0334 31.5852 20.9943C31.5702 20.9697 31.5568 20.9445 31.5407 20.9204C31.5246 20.8953 31.5069 20.8723 31.4903 20.8482C31.478 20.8294 31.4667 20.8102 31.4538 20.7914C31.4415 20.7738 31.4281 20.7577 31.4152 20.7406C31.3831 20.6961 31.3504 20.6522 31.316 20.6094C31.2914 20.5773 31.2657 20.5457 31.2388 20.5136C31.2019 20.4686 31.1633 20.4247 31.1236 20.3808C31.0978 20.3524 31.0726 20.3252 31.0464 20.2973C31.0046 20.254 30.9627 20.2111 30.9193 20.1694C30.892 20.1431 30.8641 20.1174 30.8362 20.0917C30.7928 20.0521 30.7483 20.0131 30.7033 19.9745C30.6716 19.9483 30.6395 19.9231 30.6068 19.8974C30.5633 19.8632 30.5199 19.8294 30.4749 19.7962C30.4363 19.7679 30.3961 19.7411 30.3558 19.7138C30.3156 19.687 30.2765 19.6597 30.2347 19.634C30.1848 19.6024 30.1339 19.5735 30.0824 19.5441C30.0492 19.5254 30.0165 19.5056 29.9827 19.4874C29.9184 19.4526 29.8524 19.4215 29.787 19.3899C29.7677 19.3808 29.7495 19.3707 29.7302 19.3621C29.728 19.361 29.7259 19.361 29.7238 19.3594C29.7093 19.353 29.6959 19.3455 29.6809 19.3396C29.6782 19.3225 29.6739 19.3059 29.6712 19.2887C29.6642 19.2486 29.6573 19.2095 29.6487 19.1699C29.639 19.1255 29.6278 19.0816 29.616 19.0377C29.6079 19.0077 29.5999 18.9782 29.5908 18.9483C29.5742 18.8937 29.5549 18.8401 29.5345 18.7871C29.5286 18.7716 29.5243 18.7561 29.5184 18.7406C29.5163 18.7357 29.5141 18.7315 29.5125 18.7272C29.483 18.6538 29.4503 18.5826 29.4144 18.513C29.4144 18.513 29.4144 18.5125 29.4139 18.512C29.3763 18.4397 29.3356 18.3696 29.2916 18.3016C29.2836 18.2887 29.2739 18.2759 29.2654 18.2631C29.2305 18.2106 29.1941 18.1592 29.1555 18.1094C29.1399 18.0896 29.1228 18.0693 29.1061 18.0495C29.0724 18.0082 29.0375 17.9681 29.0011 17.929C28.9919 17.9188 28.9834 17.9076 28.9732 17.8974C28.9684 17.8921 28.9625 17.8883 28.9571 17.8835C28.9356 17.8615 28.9153 17.8391 28.8938 17.8177C28.4177 17.3626 27.7733 17.0826 27.0646 17.0826C26.3344 17.0826 25.6728 17.3787 25.194 17.8567C24.7153 18.3348 24.4193 18.9954 24.4193 19.7245V30.4959C24.4193 31.2256 24.7158 31.8862 25.194 32.3637C25.6728 32.8418 26.3344 33.1378 27.0646 33.1378C27.1541 33.1378 27.2431 33.133 27.3305 33.1244C27.3675 33.1207 27.4029 33.1137 27.4393 33.1078C27.4892 33.1009 27.5396 33.095 27.5884 33.0853C27.6339 33.0762 27.6784 33.0634 27.7235 33.0516C27.761 33.042 27.8001 33.034 27.8371 33.0227C27.887 33.0072 27.9358 32.9885 27.984 32.9703C28.014 32.959 28.0451 32.9494 28.0746 32.9376C28.1266 32.9162 28.177 32.891 28.2274 32.8664C28.2521 32.8541 28.2773 32.8428 28.3014 32.83C28.3534 32.8027 28.4033 32.7722 28.4531 32.7417C28.474 32.7288 28.4955 32.717 28.5159 32.7037C28.5663 32.6705 28.614 32.6346 28.6617 32.5982C28.6799 32.5843 28.6987 32.5714 28.7169 32.5575C28.7641 32.5195 28.8086 32.4793 28.8531 32.4387C28.8659 32.4269 28.8799 32.4156 28.8933 32.4033C28.897 32.3996 28.9003 32.3958 28.9046 32.3921C28.9142 32.3825 28.9255 32.3744 28.9346 32.3643C28.9576 32.3412 28.978 32.3161 29 32.2931C29.0214 32.2695 29.0429 32.247 29.0632 32.2229C29.0938 32.1881 29.1228 32.1523 29.1506 32.1159C29.1699 32.0918 29.1876 32.0671 29.2059 32.042C29.2337 32.0034 29.2616 31.9649 29.2868 31.9248C29.3018 31.9012 29.3158 31.8771 29.3302 31.853C29.3565 31.8096 29.3828 31.7668 29.4064 31.7219C29.4133 31.7079 29.4198 31.6935 29.4267 31.679C29.5104 31.5131 29.5758 31.337 29.6235 31.1528C29.6289 31.1298 29.6353 31.1073 29.6407 31.0837C29.6524 31.0329 29.6616 30.981 29.6707 30.9285C29.6728 30.9124 29.6771 30.8969 29.6798 30.8809C29.7227 30.8626 29.7629 30.8412 29.8047 30.8214C29.8347 30.807 29.8642 30.7936 29.8932 30.7786C29.9521 30.7486 30.01 30.717 30.0674 30.6844C30.1012 30.6651 30.1355 30.6469 30.1693 30.6266C30.2159 30.5982 30.261 30.5682 30.3065 30.5382C30.3478 30.5109 30.3896 30.4852 30.4293 30.4569C30.4561 30.4381 30.4813 30.4173 30.507 30.398C30.7869 30.1908 31.0378 29.952 31.2555 29.6865C31.2635 29.6763 31.2732 29.6667 31.2812 29.656C31.3268 29.5987 31.3702 29.5404 31.4131 29.4815C31.4254 29.4638 31.4394 29.4472 31.4517 29.4296C31.4549 29.4247 31.4576 29.4199 31.4613 29.4151C31.471 29.4006 31.4822 29.3878 31.4914 29.3734C31.5241 29.3246 31.5536 29.2743 31.5841 29.2245C31.6002 29.1988 31.6168 29.1737 31.6318 29.1474C31.6661 29.0896 31.6978 29.0297 31.7289 28.9697C31.7466 28.9349 31.7659 28.9017 31.7836 28.8664C31.8093 28.8139 31.8329 28.7593 31.8565 28.7052C31.8752 28.6619 31.8951 28.6191 31.9128 28.5752C31.9321 28.527 31.9487 28.4783 31.9658 28.429C31.9841 28.3782 32.0034 28.3279 32.02 28.2759C32.0339 28.2304 32.0457 28.1849 32.0581 28.1389C32.0736 28.0827 32.0902 28.027 32.1036 27.9692C32.1143 27.9226 32.1224 27.8755 32.1315 27.8284C32.1428 27.7711 32.1556 27.7144 32.1642 27.6571C32.1733 27.5998 32.1787 27.5409 32.1851 27.4831C32.1905 27.4349 32.198 27.3873 32.2017 27.3386C32.2098 27.231 32.2146 27.1223 32.2146 27.0125C32.2146 27.0115 32.2146 27.0099 32.2146 27.0093L32.2178 27.0109ZM25.2476 30.4965V19.725C25.2476 19.2234 25.4514 18.7695 25.7805 18.4408C26.1092 18.1121 26.5638 17.9092 27.0667 17.9092C27.5557 17.9092 27.999 18.1003 28.3245 18.4119C28.355 18.4419 28.384 18.4729 28.4129 18.504C28.4317 18.5248 28.4499 18.5457 28.4676 18.5671C28.4864 18.5896 28.5046 18.6126 28.5223 18.6356C28.54 18.6587 28.5566 18.6822 28.5727 18.7068C28.5882 18.7288 28.6027 18.7513 28.6167 18.7748C28.6338 18.8021 28.6499 18.83 28.6654 18.8583C28.6762 18.8792 28.6874 18.8996 28.6981 18.921C28.7137 18.9531 28.7287 18.9857 28.7426 19.0184C28.7507 19.0371 28.7582 19.0564 28.7657 19.0757C28.7791 19.1105 28.7914 19.1463 28.8027 19.1828C28.8086 19.2004 28.8134 19.2186 28.8188 19.2368C28.8295 19.2754 28.8386 19.3139 28.8472 19.353C28.8509 19.3701 28.8542 19.3867 28.8574 19.4038C28.8643 19.4445 28.8702 19.4852 28.8751 19.5264C28.8772 19.5436 28.8783 19.5607 28.8799 19.5778C28.8836 19.6271 28.8869 19.6758 28.8869 19.7261C28.8869 20.0173 28.8172 20.2984 28.6906 20.5484C28.5872 20.7523 28.4435 20.9349 28.2682 21.0885C28.2499 21.0982 28.2317 21.1078 28.2146 21.1207C28.1374 21.1779 28.0494 21.2229 27.9556 21.254C27.8634 21.2839 27.7658 21.3 27.6666 21.3C27.4125 21.3 27.1825 21.1972 27.0163 21.0313C26.8501 20.8653 26.7472 20.6356 26.7472 20.3824C26.7472 20.2625 26.7702 20.1453 26.8137 20.0371C26.8582 19.9279 26.9225 19.8273 27.0045 19.7432C27.1632 19.58 27.16 19.3198 26.9965 19.1613C26.8335 19.0034 26.5724 19.0066 26.4137 19.1699C26.255 19.3337 26.1312 19.5232 26.0486 19.7283C25.9644 19.9354 25.9205 20.1571 25.9205 20.383C25.9205 20.8642 26.1156 21.3 26.4319 21.6158C26.5048 21.6881 26.5847 21.754 26.6694 21.8134C26.5601 21.8937 26.455 21.9793 26.359 22.0752C25.8803 22.5532 25.5843 23.2133 25.5843 23.9429C25.5843 24.2952 25.6567 24.6432 25.7929 24.9665C25.928 25.2877 26.1263 25.5816 26.3794 25.8289C26.5413 25.9884 26.8024 25.9858 26.9622 25.8241C27.1219 25.6624 27.1198 25.4017 26.9573 25.2427C26.7815 25.0709 26.6442 24.868 26.5515 24.6474C26.4598 24.4296 26.411 24.1903 26.411 23.9435C26.411 23.4419 26.6148 22.9879 26.9439 22.6592C27.2726 22.331 27.7278 22.1271 28.2296 22.1271C28.5153 22.1271 28.7909 22.1929 29.0375 22.315C29.2847 22.437 29.5045 22.6164 29.6771 22.8412C29.8154 23.0222 30.0744 23.0564 30.2551 22.9183C30.4363 22.7807 30.4706 22.5222 30.3323 22.3412C30.0824 22.0141 29.7624 21.7545 29.4026 21.5762C29.2975 21.5243 29.1882 21.4804 29.0772 21.4424C29.2144 21.2823 29.3318 21.1073 29.4267 20.9204C29.534 20.7095 29.6112 20.4841 29.6589 20.2507C29.7157 20.2829 29.772 20.315 29.8262 20.3498C29.8278 20.3503 29.8288 20.3509 29.8299 20.3519C29.8846 20.3867 29.9366 20.4242 29.9886 20.4622C30.0052 20.474 30.0224 20.4858 30.039 20.4975C30.0835 20.5307 30.1253 20.5661 30.1677 20.6014C30.1902 20.6201 30.2132 20.6383 30.2352 20.6571C30.2738 20.6908 30.3108 20.7267 30.3478 20.762C30.3709 20.7845 30.3944 20.8059 30.4164 20.8289C30.4523 20.8653 30.4872 20.9033 30.521 20.9408C30.5419 20.9638 30.5628 20.9868 30.5826 21.0104C30.6169 21.0505 30.6502 21.0923 30.6829 21.134C30.7 21.156 30.7167 21.1779 30.7327 21.1999C30.7676 21.2465 30.8003 21.2946 30.8325 21.3428C30.8432 21.3594 30.8539 21.376 30.8646 21.3926C30.8984 21.4456 30.93 21.4991 30.9611 21.5537C30.9692 21.5687 30.9772 21.5842 30.9858 21.5987C31.0164 21.6554 31.0453 21.7127 31.0726 21.7711C31.0796 21.7861 31.0866 21.8011 31.093 21.8161C31.1193 21.8749 31.1445 21.9344 31.1681 21.9949C31.174 22.0109 31.1799 22.0275 31.1858 22.0436C31.2078 22.103 31.2281 22.1635 31.2464 22.224C31.2523 22.2438 31.2571 22.2647 31.263 22.2845C31.2796 22.3423 31.2951 22.4006 31.3085 22.4595C31.3144 22.4868 31.3193 22.5152 31.3246 22.5425C31.3354 22.5955 31.3461 22.6485 31.3536 22.702C31.36 22.7427 31.3638 22.7845 31.3686 22.8262C31.3734 22.868 31.3793 22.9092 31.3825 22.951C31.3884 23.0361 31.3927 23.1217 31.3927 23.2079C31.3927 23.2904 31.389 23.3717 31.3836 23.4526C31.3825 23.474 31.3793 23.4943 31.3777 23.5157C31.3718 23.5757 31.3659 23.6362 31.3573 23.6951C31.3541 23.7181 31.3498 23.74 31.3466 23.7625C31.337 23.8203 31.3268 23.8776 31.3139 23.9344C31.3091 23.9563 31.3032 23.9777 31.2984 23.9997C31.285 24.0559 31.2705 24.1116 31.2539 24.1662C31.2469 24.1897 31.2405 24.2122 31.2329 24.2352C31.2153 24.2904 31.1965 24.3455 31.1761 24.399C31.1686 24.4199 31.1611 24.4403 31.1531 24.4606C31.1305 24.5168 31.1064 24.5719 31.0812 24.6271C31.0732 24.6448 31.0657 24.6624 31.0576 24.6795C31.0308 24.7352 31.0019 24.7893 30.9724 24.8428C30.9633 24.8594 30.9547 24.8766 30.9456 24.8931C30.907 24.9617 30.8652 25.0286 30.8217 25.0939C30.5982 25.4279 30.3146 25.7224 29.9827 25.9611C29.9763 25.6255 29.9071 25.2952 29.7774 24.9868C29.6417 24.6656 29.4439 24.3723 29.1908 24.1244C29.0284 23.9649 28.7673 23.9676 28.6081 24.1292C28.4483 24.2909 28.4504 24.5516 28.6129 24.7111C28.7887 24.8824 28.9255 25.0853 29.0187 25.3059C29.1099 25.5238 29.1587 25.7631 29.1587 26.0099C29.1587 26.5115 28.9549 26.966 28.6263 27.2941C28.2977 27.6223 27.8425 27.8262 27.3396 27.8262C27.1466 27.8262 26.9584 27.7963 26.7815 27.7401C26.6024 27.6822 26.4319 27.5971 26.2781 27.4868C26.0936 27.3541 25.8363 27.3958 25.7033 27.5805C25.5704 27.7647 25.6127 28.0216 25.7972 28.1544C26.0196 28.3134 26.2636 28.436 26.5199 28.5195C26.5161 28.5265 26.5107 28.5329 26.507 28.5404C26.3628 28.8016 26.284 29.0977 26.284 29.4039C26.284 29.6844 26.3515 29.9585 26.4759 30.2058C26.6003 30.4526 26.781 30.671 27.0077 30.8402C27.1906 30.9756 27.449 30.9371 27.5841 30.7545C27.7192 30.572 27.6811 30.3145 27.4983 30.179C27.3761 30.088 27.2785 29.9708 27.212 29.8391C27.1455 29.7079 27.1107 29.5591 27.1107 29.4039C27.1107 29.2374 27.1525 29.0773 27.2302 28.9371C27.2924 28.8241 27.3771 28.7251 27.4795 28.6448C28.154 28.6094 28.7625 28.3252 29.2101 27.8782C29.4519 27.6367 29.6471 27.3482 29.7811 27.0286C30.3419 26.7663 30.8276 26.3899 31.2142 25.9344C31.2179 25.9461 31.2233 25.9579 31.2271 25.9708C31.2319 25.9863 31.2362 26.0013 31.241 26.0168C31.2576 26.0698 31.2726 26.1233 31.2866 26.1763C31.2898 26.1892 31.2925 26.2026 31.2957 26.2154C31.3085 26.2695 31.3214 26.3236 31.3316 26.3776C31.3359 26.4012 31.3391 26.4247 31.3434 26.4483C31.3509 26.4938 31.3589 26.5393 31.3643 26.5848C31.3691 26.6212 31.3718 26.6576 31.3756 26.694C31.3782 26.7288 31.3825 26.7636 31.3847 26.7979C31.3895 26.8691 31.3916 26.9408 31.3916 27.0131C31.3916 27.0141 31.3916 27.0152 31.3916 27.0163C31.3916 27.1046 31.3879 27.1913 31.3815 27.2781C31.3766 27.338 31.3686 27.398 31.3611 27.4579C31.3579 27.4826 31.3563 27.5066 31.3525 27.5313C31.3402 27.611 31.3252 27.6908 31.3069 27.769C31.3064 27.7722 31.3059 27.7743 31.3053 27.777C31.211 28.1871 31.0421 28.572 30.8105 28.9146C30.7687 28.9761 30.7242 29.0366 30.6786 29.0955C30.6716 29.1046 30.6657 29.1132 30.6588 29.1217C30.6175 29.1737 30.574 29.2245 30.5296 29.2743C30.5167 29.2888 30.5044 29.3038 30.4915 29.3177C30.4502 29.3616 30.4078 29.4044 30.3644 29.4462C30.3457 29.4638 30.328 29.4826 30.3092 29.5002C30.2685 29.5377 30.2261 29.5741 30.1837 29.6105C30.1607 29.6298 30.1382 29.6496 30.1141 29.6678C30.0722 29.7015 30.0293 29.7336 29.9859 29.7647C29.9602 29.7834 29.935 29.8022 29.9087 29.8198C29.8642 29.8498 29.8192 29.8792 29.7731 29.9071C29.7468 29.9237 29.7205 29.9397 29.6937 29.9547C29.6819 29.9617 29.6696 29.9681 29.6573 29.9745C29.6299 29.8418 29.5945 29.7101 29.5474 29.5827C29.4396 29.292 29.2798 29.0195 29.074 28.7797C28.926 28.6073 28.666 28.5864 28.4928 28.7347C28.3202 28.8824 28.2993 29.1421 28.4478 29.315C28.5888 29.4793 28.6987 29.6662 28.7727 29.8664C28.8466 30.0666 28.8858 30.2802 28.8858 30.4981C28.8858 30.5521 28.882 30.6052 28.8777 30.6576C28.8767 30.6726 28.8756 30.6876 28.874 30.702C28.8686 30.7492 28.8611 30.7957 28.852 30.8418C28.8499 30.8541 28.8477 30.8664 28.845 30.8787C28.8349 30.9258 28.8231 30.9719 28.8091 31.0179C28.8054 31.0286 28.8027 31.0393 28.7995 31.05C28.785 31.0966 28.7678 31.1416 28.7496 31.186C28.7453 31.1956 28.7416 31.2053 28.7378 31.2149C28.7191 31.2593 28.6976 31.3032 28.6751 31.3455C28.6703 31.3546 28.6654 31.3637 28.6611 31.3723C28.6376 31.4151 28.6124 31.4563 28.5856 31.4965C28.5802 31.5045 28.5754 31.5125 28.57 31.52C28.5421 31.5607 28.5121 31.6003 28.481 31.6383C28.4756 31.6448 28.4708 31.6517 28.4655 31.6582C28.4328 31.6978 28.3979 31.7352 28.362 31.7722C28.3577 31.7765 28.3539 31.7807 28.3491 31.785C28.3111 31.8236 28.2708 31.86 28.229 31.8953C28.2264 31.8974 28.2242 31.8991 28.2221 31.9012C28.1786 31.9371 28.1336 31.9697 28.0875 32.0018C28.0859 32.0029 28.0843 32.0045 28.0827 32.0051C28.036 32.0361 27.9883 32.0655 27.9384 32.0923C27.9363 32.0934 27.9347 32.095 27.9326 32.0961C27.8843 32.1223 27.835 32.1458 27.784 32.1673C27.7803 32.1689 27.7771 32.171 27.7733 32.1726C27.7245 32.1929 27.6752 32.2106 27.6243 32.2267C27.6178 32.2288 27.6125 32.2315 27.6055 32.2331C27.5578 32.2481 27.509 32.2593 27.4597 32.2706C27.45 32.2727 27.4404 32.2754 27.4307 32.2775C27.3836 32.2872 27.3353 32.2936 27.2865 32.2995C27.2747 32.3006 27.2624 32.3038 27.2501 32.3048C27.19 32.3107 27.1284 32.3139 27.0662 32.3139C26.5638 32.3139 26.1092 32.1111 25.78 31.7824C25.4508 31.4537 25.2471 30.9997 25.2471 30.4976L25.2476 30.4965Z" fill="#FF811B"/>
<path d="M24.8261 15.7559C24.6154 15.7559 24.4449 15.5851 24.4449 15.3753V13.3811C24.4449 13.1708 24.616 13 24.8261 13C25.0368 13 25.2079 13.1708 25.2079 13.3811V15.3753C25.2079 15.5856 25.0368 15.7559 24.8261 15.7559Z" fill="#FF811B"/>
<path d="M19.5344 17.4709C19.4165 17.4709 19.3002 17.4168 19.2256 17.314L18.0526 15.7021C17.9287 15.5319 17.9663 15.2937 18.1368 15.1705C18.3067 15.0469 18.5458 15.0843 18.6691 15.2546L19.8422 16.8665C19.966 17.0362 19.9285 17.2749 19.758 17.3986C19.6905 17.4473 19.6122 17.4709 19.5344 17.4709Z" fill="#FF811B"/>
<path d="M16.2758 21.9618C16.2366 21.9618 16.197 21.956 16.1578 21.9431L14.2637 21.328C14.0632 21.2632 13.9538 21.0486 14.0187 20.8483C14.0841 20.6481 14.2991 20.5389 14.4991 20.6042L16.3932 21.2188C16.5937 21.2841 16.7031 21.4988 16.6382 21.6985C16.5857 21.8596 16.4366 21.9613 16.2758 21.9613V21.9618Z" fill="#FF811B"/>
<path d="M35.265 28.1551C35.2237 28.1551 35.1824 28.1482 35.1417 28.1343L33.2631 27.4924C33.0637 27.4239 32.9575 27.2076 33.0261 27.0084C33.0942 26.8098 33.3108 26.7038 33.5102 26.7713L35.3888 27.4137C35.5883 27.4817 35.6944 27.698 35.6263 27.8971C35.5722 28.055 35.4242 28.1546 35.2655 28.1546L35.265 28.1551Z" fill="#FF811B"/>
<path d="M33.3874 21.9624C33.2266 21.9624 33.0775 21.8601 33.025 21.6995C32.9596 21.4993 33.0695 21.2846 33.2695 21.2199L35.2188 20.5876C35.4188 20.5229 35.6338 20.6321 35.6997 20.8317C35.7646 21.032 35.6552 21.2472 35.4547 21.3119L33.5054 21.9442C33.4662 21.9565 33.4271 21.9629 33.3874 21.9629V21.9624Z" fill="#FF811B"/>
<path d="M14.4078 28.1723C14.2502 28.1723 14.1033 28.0744 14.0481 27.9175C13.9784 27.7195 14.0829 27.5021 14.2813 27.432L16.154 26.7741C16.3524 26.7045 16.57 26.8083 16.6403 27.0069C16.7105 27.205 16.606 27.4223 16.4076 27.4925L14.5349 28.1504C14.4931 28.1654 14.4502 28.1723 14.4084 28.1723H14.4078Z" fill="#FF811B"/>
<path d="M30.1145 17.4705C30.0368 17.4705 29.9585 17.4469 29.8904 17.3982C29.7199 17.2745 29.6824 17.0363 29.8063 16.8661L30.9788 15.2542C31.1031 15.0845 31.3412 15.047 31.5117 15.1701C31.6822 15.2938 31.7192 15.532 31.5958 15.7017L30.4228 17.3136C30.3483 17.4164 30.2319 17.4705 30.114 17.4705H30.1145Z" fill="#FF811B"/>
</svg>
