<svg width="50" height="50" viewBox="0 0 50 50" fill="none" xmlns="http://www.w3.org/2000/svg">
<path d="M2.00003 24.7874C2.00003 37.3698 12.216 47.5748 24.8242 47.5748C37.4325 47.5748 47.6484 37.3698 47.6484 24.7874C47.6484 12.2051 37.4325 2 24.8242 2C12.216 2 2.00003 12.2051 2.00003 24.7874Z" fill="#FFD4E5" stroke="#FCF0F4" stroke-width="4"/>
<path d="M18.2723 36C18.1738 36 18.0741 35.977 17.9805 35.9296C17.6953 35.7833 17.5628 35.4494 17.6704 35.1482L19.6762 29.5058C19.7942 29.1737 20.159 29 20.4922 29.1178C20.8248 29.2356 20.9987 29.6005 20.8807 29.9325L20.4709 31.0849L21.707 29.3084C21.9082 29.0189 22.3071 28.9472 22.5965 29.1488C22.8865 29.3497 22.9583 29.7474 22.7564 30.037L18.797 35.7256C18.6742 35.9023 18.4754 36 18.2717 36H18.2723Z" fill="#FF0066"/>
<path d="M23.6258 35.3749C23.461 35.3749 23.2968 35.3112 23.1722 35.1867C22.9424 34.956 22.9235 34.5905 23.1272 34.3368C25.8329 30.9758 26.1162 28.5455 26.1101 27.6415C25.946 27.7041 25.752 27.786 25.5903 27.8546C24.753 28.2098 23.6057 28.6961 22.3344 28.6961C21.6923 28.6961 21.0812 28.5692 20.5176 28.3184C19.8445 28.0191 19.3782 27.4624 19.1696 26.7078C18.6936 24.9836 19.5959 22.387 20.8161 20.276C19.5515 20.6512 18.0734 21.5637 17.235 23.7171C17.12 24.0116 16.8069 24.1786 16.4974 24.1081C16.1892 24.0383 15.9776 23.753 16.0019 23.4373C16.2925 19.6295 19.6007 16.7578 23.6981 16.7578C23.9128 16.7578 24.131 16.7657 24.3487 16.7815C24.3578 16.7815 24.3669 16.7809 24.3761 16.7809C25.8061 16.7845 26.9261 17.6703 27.1444 18.9507C27.4399 19.5159 27.8971 20.2323 28.5598 20.3999C28.6382 20.4199 28.7288 20.4296 28.8286 20.4296C29.8129 20.4296 31.3767 19.5378 32.7557 18.751C32.9296 18.652 33.1017 18.5543 33.2701 18.4589C33.5455 18.3035 33.8945 18.3733 34.0885 18.6229C34.283 18.8724 34.2648 19.2263 34.0465 19.4558C32.8269 20.7314 30.2239 22.9 28.2017 22.9364L28.1409 22.937C27.4769 22.937 26.8069 22.7409 26.1424 22.3524C25.8292 22.8265 25.4948 23.2211 25.2097 23.5575C24.8868 23.9381 24.5232 24.3674 24.5573 24.5361C24.5731 24.5386 24.5956 24.5404 24.6278 24.5404C24.8382 24.5404 25.1586 24.4621 25.4979 24.3795C25.9818 24.2617 26.5309 24.1282 27.0963 24.1282C27.9007 24.1282 28.5635 24.4093 29.0657 24.9635C29.58 25.5306 29.8208 26.3654 29.7424 27.3149C29.6311 28.6669 28.741 31.4936 24.0222 35.2371C23.9049 35.33 23.7644 35.3755 23.6246 35.3755L23.6258 35.3749ZM26.4318 26.2688C26.8914 26.2688 27.2368 26.542 27.3328 26.9822C27.4812 27.6591 27.4155 29.0616 26.675 30.9047C28.122 29.0949 28.42 27.8115 28.4698 27.2105C28.5185 26.6167 28.3944 26.1231 28.1196 25.8202C27.8594 25.533 27.5438 25.4043 27.0975 25.4043C26.6853 25.4043 26.236 25.5136 25.8019 25.6192C25.386 25.7206 24.9932 25.8159 24.629 25.8165C24.629 25.8165 24.629 25.8165 24.6284 25.8165C23.9085 25.8165 23.5717 25.4353 23.416 25.1153C22.9782 24.2162 23.6167 23.4622 24.235 22.733C24.612 22.288 25.04 21.7835 25.3738 21.1503C25.4614 20.9839 25.6176 20.8649 25.8012 20.8243C25.9849 20.7836 26.177 20.8261 26.3266 20.9396C26.9559 21.418 27.5663 21.6602 28.1421 21.6602H28.1798C28.2236 21.659 28.2686 21.6566 28.3136 21.653C28.2911 21.6481 28.2692 21.6426 28.2467 21.6372C27.0434 21.333 26.3643 20.236 25.9587 19.4376C25.9253 19.372 25.9034 19.3004 25.8943 19.2275C25.8225 18.6508 25.3313 18.0674 24.3937 18.057L24.3761 18.0582C24.3487 18.0601 24.3201 18.0595 24.2928 18.057C24.2843 18.0564 24.2642 18.0546 24.2551 18.0534C24.0806 18.0413 23.8878 18.034 23.6987 18.034C21.9975 18.034 20.5973 18.5737 19.5424 19.403C20.5547 18.9367 21.5093 18.8008 22.0924 18.7655C22.3362 18.751 22.5697 18.8772 22.6894 19.0916C22.8092 19.3059 22.7952 19.5694 22.6536 19.7697C21.2144 21.809 19.9783 24.8348 20.4021 26.3684C20.5097 26.7588 20.7116 27.0077 21.0375 27.1522C21.4424 27.3319 21.8668 27.4193 22.3344 27.4193C23.3455 27.4193 24.3134 27.0089 25.0905 26.6792C25.6541 26.4407 26.0615 26.2676 26.4312 26.2676L26.4318 26.2688Z" fill="#FF0066"/>
<path d="M25.8017 18.0572C24.1296 18.0572 22.7689 16.6984 22.7689 15.0283C22.7689 13.3587 24.1296 12 25.8017 12C27.4737 12 28.8345 13.3587 28.8345 15.0283C28.8345 16.6984 27.4737 18.0572 25.8017 18.0572ZM25.8017 13.2768C24.8343 13.2768 24.047 14.063 24.047 15.0289C24.047 15.9954 24.8337 16.781 25.8017 16.781C26.769 16.781 27.5564 15.9954 27.5564 15.0289C27.5564 14.063 26.7696 13.2768 25.8017 13.2768Z" fill="#FF0066"/>
</svg>
