<svg width="50" height="50" viewBox="0 0 50 50" fill="none" xmlns="http://www.w3.org/2000/svg">
<path d="M2.35159 24.7874C2.35159 37.3698 12.5675 47.5748 25.1758 47.5748C37.7841 47.5748 48 37.3698 48 24.7874C48 12.2051 37.7841 2 25.1758 2C12.5675 2 2.35159 12.2051 2.35159 24.7874Z" fill="#C9EDFF" stroke="#E2F5FF" stroke-width="4"/>
<path d="M27.8186 36.6564C28.5352 36.6564 29.2389 36.4968 29.8537 36.1942C32.7264 34.7852 34.3103 31.8594 34.9992 30.2402C35.4862 29.0963 36.9677 25.6158 35.2449 22.9895C35.0529 22.6967 34.6628 22.6092 34.3634 22.7917L26.11 27.8266C25.9168 27.9443 25.7995 28.1539 25.7995 28.3795V35.743C25.7995 36 25.9514 36.2324 26.1865 36.3359C26.6618 36.5455 27.2266 36.6564 27.818 36.6564H27.8186ZM34.4535 24.2561C35.2856 26.2555 34.1881 28.8343 33.8048 29.7342C32.753 32.2064 31.1037 34.1374 29.2809 35.0317C28.8488 35.2438 28.3297 35.3609 27.818 35.3609C27.5667 35.3609 27.3211 35.3325 27.097 35.2789V28.7431L34.4529 24.2561H34.4535Z" fill="#008DD2"/>
<path d="M21.071 36.4358C21.2383 36.4358 21.4093 36.4216 21.579 36.3938C21.9618 36.331 22.3124 36.2367 22.621 36.1541C23.137 36.0154 23.5808 35.9026 23.9932 35.955C24.1783 35.9778 24.3641 35.9211 24.5036 35.7985C24.6431 35.6752 24.7234 35.4983 24.7234 35.3122V28.3055C24.7234 28.1255 24.6481 27.9536 24.5166 27.8309L17.5378 21.3519C17.307 21.1374 16.9551 21.1201 16.7033 21.3099C15.1175 22.5118 14.504 24.4737 14.4583 25.9091C14.391 28.0201 15.1811 30.3358 16.8724 32.9879L17.0045 33.1956C17.8205 34.4856 19.0538 36.4358 21.0704 36.4358H21.071ZM23.4259 34.6631C23.0278 34.7032 22.6512 34.8043 22.2846 34.9029C21.9914 34.9818 21.6883 35.0631 21.3692 35.1155C21.2686 35.1322 21.1686 35.1402 21.0717 35.1402C19.7699 35.1402 18.8063 33.6166 18.1026 32.5041L17.9681 32.292C16.4212 29.8667 15.6978 27.7927 15.7564 25.9504C15.7866 24.9945 16.1589 23.6416 17.0841 22.6992L23.4265 28.5878V34.6631H23.4259Z" fill="#008DD2"/>
<path d="M25.4467 26.7716C25.5634 26.7716 25.68 26.7408 25.785 26.6767L33.7563 21.8144C33.9341 21.7059 34.0489 21.5197 34.0649 21.312C34.0816 21.1049 33.997 20.9028 33.839 20.7678C33.6847 20.6365 33.5495 20.5317 33.4125 20.4362C32.4866 19.7921 31.5576 19.479 30.5725 19.479C29.4923 19.479 28.5466 19.8605 27.7121 20.1971C27.08 20.4516 26.4837 20.6926 25.9757 20.6982C25.506 20.6982 25.2399 20.5194 24.7992 20.2229C24.0961 19.7496 23.1332 19.1018 21.0172 19.1018C20.7185 19.1018 20.4 19.1148 20.0697 19.14C19.5846 19.1776 19.1167 19.2769 18.6784 19.4365C18.4661 19.5135 18.3093 19.6954 18.2642 19.9166C18.2192 20.1379 18.2926 20.3666 18.4587 20.52L25.006 26.5985C25.1294 26.7125 25.2881 26.7716 25.4479 26.7716H25.4467ZM32.2311 21.2264L25.5282 25.3152L20.2617 20.4257C20.5253 20.4072 20.7784 20.3986 21.016 20.3986C22.7357 20.3986 23.4462 20.8769 24.0733 21.2985C24.5825 21.6412 25.1091 21.9949 25.9541 21.9956H25.9905C26.743 21.9869 27.4491 21.7022 28.1979 21.4002C28.9577 21.0932 29.7441 20.7764 30.5725 20.7764C31.1342 20.7764 31.6811 20.9243 32.2311 21.227V21.2264Z" fill="#008DD2"/>
<path d="M26.3361 21.5479C26.6947 21.5479 26.9849 21.2576 26.9849 20.9001C26.9849 15.5748 24.5979 14.283 24.4967 14.2312C24.1788 14.0666 23.7868 14.1918 23.6226 14.5098C23.4578 14.8278 23.5831 15.2186 23.9016 15.3825C23.9078 15.3869 25.688 16.4519 25.688 20.9007C25.688 21.2582 25.9781 21.5485 26.3367 21.5485L26.3361 21.5479Z" fill="#008DD2"/>
<path d="M28.0186 18.2552C28.0458 18.2552 28.0735 18.2533 28.1007 18.2496C28.1612 18.2416 34.1153 17.4083 33.511 11.2411C33.4937 11.0679 33.4079 10.9083 33.2715 10.7992C33.1357 10.6901 32.9616 10.6396 32.7876 10.6611C32.7339 10.6679 27.3773 11.381 27.3686 17.6062C27.3686 17.7923 27.4489 17.9698 27.5884 18.0931C27.7075 18.1978 27.8606 18.2552 28.0174 18.2552H28.0186ZM32.2555 12.1077C32.2407 15.2819 29.9469 16.4098 28.7062 16.7876C29.0186 13.5543 31.1352 12.4615 32.2555 12.1077Z" fill="#008DD2"/>
</svg>
