<svg width="50" height="50" viewBox="0 0 50 50" fill="none" xmlns="http://www.w3.org/2000/svg">
<path d="M2.00003 24.7874C2.00003 37.3698 12.216 47.5748 24.8242 47.5748C37.4325 47.5748 47.6484 37.3691 47.6484 24.7874C47.6484 12.2051 37.4325 2 24.8242 2C12.216 2 2.00003 12.2051 2.00003 24.7874Z" fill="#C9EDFF" stroke="#E2F5FF" stroke-width="4"/>
<path d="M30.9918 14.0929C30.9082 13.9409 30.8178 13.7923 30.7227 13.6477C30.8899 13.8771 31.0469 14.114 31.1937 14.3576C31.1292 14.268 31.0625 14.1785 30.9918 14.0929Z" fill="#008DD2" stroke="#008DD2" stroke-width="0.00667" stroke-miterlimit="2.61313"/>
<path d="M31.1091 14.4224L31.2933 14.3016C31.1431 14.0518 30.9827 13.8102 30.8169 13.5835L30.6354 13.7091C30.7292 13.8509 30.8182 13.9982 30.8998 14.1462C30.9807 14.2473 31.0459 14.3342 31.1085 14.4224H31.1091Z" fill="#008DD2" stroke="#008DD2" stroke-width="0.00667" stroke-miterlimit="2.61313"/>
<path d="M33.2357 26.4005C33.0841 25.5636 33.0467 24.7376 32.8054 23.9136C32.7945 23.8756 32.7816 23.839 32.7701 23.8017C32.6987 23.5757 32.6165 23.3544 32.5213 23.1392C32.3378 22.7245 32.1114 22.3309 31.849 21.9569C31.0157 20.7678 29.8337 19.8678 28.6 19.1253C25.9456 17.5262 22.6748 16.6609 20.6853 14.1469C19.9511 13.2198 19.5569 12.0714 19.7914 10.8959C19.8193 10.7581 20.0497 10.7615 20.045 10.9095C20.0436 10.9447 20.0436 10.98 20.0436 11.0153C20.0307 12.7637 21.0897 13.9962 22.4661 14.9431C22.8719 15.222 23.3042 15.4765 23.7461 15.712C24.6868 16.215 25.6649 16.6324 26.4921 17.0213C27.8339 17.6525 29.2083 18.3597 30.408 19.261C30.5501 19.3676 30.6888 19.4769 30.8254 19.5889C31.6247 20.2445 32.3282 20.9999 32.8666 21.8924C33.0209 22.1483 33.1623 22.415 33.288 22.6947C33.7835 23.7956 34.0826 25.2365 33.8155 26.4317C33.74 26.771 33.2935 26.7174 33.2364 26.3998L33.2357 26.4005Z" fill="#008DD2" stroke="#008DD2" stroke-width="0.00667" stroke-miterlimit="2.61313"/>
<path d="M33.533 26.7748C33.7206 26.7748 33.8695 26.6499 33.9123 26.4564C34.1577 25.3623 33.9578 23.9398 33.378 22.6509C33.255 22.378 33.1116 22.1038 32.9505 21.8378C32.438 20.988 31.7623 20.2251 30.8848 19.505C30.7468 19.3917 30.6068 19.2817 30.4634 19.1745C29.2079 18.2311 27.7696 17.5069 26.5278 16.9232C26.2919 16.8119 26.0431 16.6985 25.7869 16.5818C25.133 16.2832 24.4567 15.9743 23.7864 15.6167C23.3038 15.3587 22.8885 15.109 22.5174 14.8538C20.9085 13.7468 20.1316 12.4912 20.1424 11.0177L20.1438 10.9138C20.1458 10.8527 20.1248 10.7964 20.0847 10.7543C20.0418 10.7109 19.9793 10.6858 19.9134 10.6858C19.7931 10.6858 19.6938 10.7638 19.6714 10.8752C19.4464 12.0005 19.7713 13.1869 20.5863 14.2165C21.9702 15.9635 23.9822 16.9313 25.9276 17.868C26.8017 18.2888 27.7057 18.7238 28.5309 19.2207C30.01 20.1125 31.0316 21.0023 31.746 22.0217C32.0091 22.3977 32.232 22.7893 32.4074 23.1857C32.4985 23.3907 32.5807 23.6092 32.6521 23.8366L32.6657 23.878C32.6732 23.9004 32.6806 23.9235 32.6868 23.9465C32.8404 24.4698 32.909 24.9843 32.9818 25.5286C33.0205 25.8205 33.0606 26.1218 33.115 26.4225C33.1571 26.6553 33.3563 26.7768 33.5317 26.7768L33.533 26.7748ZM19.861 10.9057L19.8162 10.9905V11.0143C19.8162 12.5672 20.6658 13.8819 22.34 15.0343C22.7179 15.2943 23.1665 15.5481 23.6566 15.8101C24.3323 16.1712 25.0256 16.4813 25.6829 16.7813C25.9385 16.8981 26.1927 17.0107 26.4279 17.1214C27.6588 17.701 29.0883 18.4184 30.3281 19.3496C30.4688 19.4555 30.6082 19.5634 30.7434 19.6747C31.6019 20.3792 32.2619 21.1231 32.7615 21.9504C32.9179 22.2097 33.0579 22.4758 33.1768 22.7411C33.7376 23.9879 33.9327 25.359 33.6975 26.4083C33.6683 26.5392 33.5731 26.5542 33.5337 26.5542C33.4528 26.5542 33.3563 26.4999 33.3352 26.3811C33.2815 26.0865 33.2421 25.7872 33.2033 25.4974C33.1327 24.9687 33.0599 24.4216 32.9015 23.8821C32.8941 23.857 32.8859 23.8318 32.8778 23.8067L32.8648 23.7674C32.7908 23.5325 32.7058 23.3058 32.6113 23.0934C32.4305 22.6841 32.2008 22.2803 31.9289 21.8921C31.1961 20.8468 30.1534 19.9374 28.6465 19.0292C27.8118 18.5263 26.9037 18.0892 26.0248 17.6671C24.1018 16.742 22.113 15.785 20.761 14.0773C19.9868 13.0993 19.6503 11.9767 19.8624 10.9159C19.8651 10.9043 19.8604 10.9043 19.861 10.9043V10.9057Z" fill="#008DD2" stroke="#008DD2" stroke-width="0.00667" stroke-miterlimit="2.61313"/>
<path d="M24.778 35.84C25.0126 35.8074 25.245 35.7592 25.4727 35.6968C25.7324 35.6255 25.9873 35.5353 26.2327 35.4253C26.9443 35.107 27.5547 34.562 28.0672 33.9844C28.1957 33.8392 28.3153 33.6892 28.4268 33.5344C28.5349 33.3851 28.6348 33.231 28.7272 33.0736C29.2792 32.1362 29.5783 31.0686 29.7509 29.9868C29.8862 29.1411 29.9997 28.294 30.2947 27.485C30.5625 26.7506 31.0784 25.9226 31.8642 25.6735C31.8642 25.6735 31.8649 25.6735 31.8655 25.6735C31.9879 25.6362 32.0824 25.7808 31.9804 25.8697C31.4502 26.3312 31.058 26.7669 30.8065 27.4355C30.5686 28.0674 30.485 28.7522 30.3912 29.4166C30.1907 30.8453 29.9263 32.2197 29.1786 33.4787C28.4132 34.7676 27.1666 35.8543 25.7195 36.2839C24.5565 36.6293 23.3214 36.6056 22.1407 36.3524C21.8009 36.2798 21.0769 36.0721 20.8159 35.9574C20.5549 35.8427 20.332 35.7477 20.3952 35.504C20.4265 35.3846 20.7017 35.314 20.9668 35.4097C21.0851 35.4525 21.4725 35.5529 21.9674 35.6513C22.5791 35.7735 23.3554 35.8923 23.9936 35.8943C24.2553 35.8957 24.5184 35.8766 24.778 35.8407V35.84Z" fill="#008DD2" stroke="#008DD2" stroke-width="0.00667" stroke-miterlimit="2.61313"/>
<path d="M23.8706 36.6399C24.5293 36.6399 25.1614 36.5516 25.7487 36.3772C27.1557 35.9591 28.437 34.9207 29.2642 33.5286C30.0493 32.2065 30.3001 30.7785 30.4898 29.4299L30.5095 29.2887C30.5944 28.6778 30.6821 28.0466 30.8996 27.4697C31.145 26.8168 31.5358 26.3872 32.0463 25.9433C32.117 25.8822 32.1408 25.7926 32.1102 25.7098C32.0708 25.6053 31.9512 25.5449 31.839 25.5802C30.8684 25.887 30.3728 26.9912 30.2049 27.4514C29.9378 28.1844 29.8168 28.9568 29.6992 29.7041L29.6571 29.9708C29.46 31.2033 29.1296 32.2024 28.645 33.0237C28.5525 33.1804 28.4533 33.3332 28.3493 33.4764C28.2371 33.6325 28.1189 33.7811 27.9958 33.9196C27.3909 34.6017 26.8016 35.0646 26.1946 35.3361C25.9574 35.4419 25.7059 35.5315 25.4482 35.6021C25.2253 35.6639 24.9962 35.7107 24.7658 35.7426C24.515 35.7779 24.2628 35.7955 24.014 35.7955C23.2888 35.7928 22.4343 35.6435 21.9878 35.5546C21.4854 35.4548 21.1082 35.3551 21.0008 35.3164C20.9097 35.2838 20.8105 35.2661 20.7153 35.2661C20.4978 35.2661 20.3354 35.349 20.302 35.4779C20.2178 35.7989 20.51 35.9272 20.7683 36.0412C21.0525 36.1668 21.7872 36.3752 22.1217 36.4464C22.7185 36.574 23.3071 36.6392 23.8713 36.6392L23.8706 36.6399ZM31.9015 25.6901C31.9192 25.6901 31.9247 25.7349 31.9267 25.7397C31.928 25.7417 31.9294 25.7661 31.9179 25.7763C31.3856 26.2392 30.9771 26.6994 30.7168 27.3903C30.4918 27.9876 30.4021 28.6344 30.3157 29.2554L30.296 29.3993C30.1091 30.7289 29.863 32.1359 29.0963 33.4268C28.2942 34.7775 27.0537 35.7847 25.6929 36.1885C24.6339 36.5035 23.4233 36.5252 22.1625 36.255C21.8097 36.1797 21.0994 35.9734 20.8567 35.8661C20.5583 35.7351 20.4529 35.6734 20.491 35.5268C20.4985 35.5085 20.5753 35.4609 20.7153 35.4609C20.7887 35.4609 20.8649 35.4745 20.9349 35.4996C21.0667 35.5471 21.4678 35.6666 21.9497 35.7623C22.5037 35.8729 23.3078 36.0249 23.9943 36.0249H24.0147C24.2716 36.0249 24.534 35.989 24.793 35.953C25.0316 35.9198 25.2695 35.8621 25.5006 35.7983C25.7677 35.725 26.028 35.6272 26.2748 35.5173C26.9076 35.2342 27.5187 34.753 28.1427 34.0499C28.2698 33.9067 28.3928 33.7519 28.5084 33.5911C28.6151 33.4424 28.7177 33.2843 28.8136 33.1228C29.3104 32.2791 29.6496 31.2576 29.8501 30.0007L29.8923 29.7332C30.0078 28.9955 30.1281 28.1939 30.3885 27.4792C30.5462 27.0462 31.0097 26.0797 31.8954 25.6895C31.8981 25.6895 31.9002 25.6895 31.9015 25.6895V25.6901Z" fill="#008DD2" stroke="#008DD2" stroke-width="0.00667" stroke-miterlimit="2.61313"/>
<path d="M32.736 18.5681C32.5864 17.8188 32.407 17.0817 32.1419 16.3643C31.8863 15.6727 31.5709 14.994 31.1876 14.3587C31.0407 14.115 30.8837 13.8782 30.7165 13.6488C30.4331 13.2612 30.119 12.8954 29.7724 12.5615C28.5992 11.4334 27.1629 10.6624 25.5438 10.4276C24.3516 10.2545 23.126 10.3624 21.9297 10.5267C21.5735 10.5755 20.4194 10.8932 20.2773 10.6135C20.2603 10.5803 20.2528 10.547 20.2535 10.5144C20.2576 10.1812 21.0984 9.88459 21.6442 9.74614C24.5399 9.01177 27.7325 9.54456 30.0048 11.5984C31.2888 12.7583 32.2432 14.2433 32.8434 15.8614C33.1445 16.6718 33.3899 17.5215 33.5245 18.3767C33.6516 19.1864 33.795 20.0633 33.5523 20.8601C33.5034 21.0196 33.2804 21.0203 33.1887 20.9056C33.1764 20.8907 33.1662 20.8737 33.1594 20.8547C32.8964 20.1264 32.8882 19.3255 32.7373 18.5681H32.736Z" fill="#008DD2" stroke="#008DD2" stroke-width="0.00667" stroke-miterlimit="2.61313"/>
<path d="M33.3577 21.0959C33.4964 21.0959 33.6099 21.0151 33.648 20.8909C33.894 20.0825 33.7533 19.188 33.6296 18.398L33.6235 18.3586C33.4998 17.5686 33.2687 16.7154 32.937 15.8222C32.3103 14.1343 31.3186 12.6452 30.0692 11.5151C28.5038 10.1 26.3933 9.3208 24.1264 9.3208C23.2835 9.3208 22.4359 9.42737 21.6073 9.63777C21.1662 9.74976 20.1398 10.0592 20.1337 10.5113C20.133 10.5629 20.1453 10.6144 20.1697 10.6619C20.2289 10.7787 20.3757 10.8364 20.619 10.8364C20.9147 10.8364 21.3239 10.7536 21.6223 10.6932C21.7508 10.6674 21.8616 10.645 21.9356 10.6341C22.5664 10.5472 23.3971 10.4475 24.2372 10.4475C24.696 10.4475 25.1147 10.476 25.5185 10.5344C27.0445 10.7556 28.4855 11.4832 29.6865 12.6384C30.0162 12.9553 30.3296 13.3164 30.6184 13.7114C30.7802 13.9327 30.9372 14.1689 31.0841 14.4132C31.445 15.0112 31.7624 15.6797 32.0289 16.3998C32.2586 17.0195 32.4408 17.6941 32.6189 18.5866C32.6726 18.8554 32.7086 19.1364 32.7439 19.4086C32.8078 19.902 32.8738 20.4117 33.0457 20.8895C33.0559 20.9187 33.0722 20.9459 33.092 20.9717C33.1538 21.0484 33.2531 21.0938 33.3577 21.0938V21.0959ZM24.1264 9.54206C26.3382 9.54206 28.3964 10.3009 29.921 11.6793C31.1446 12.7857 32.1159 14.2449 32.7297 15.8996C33.0566 16.7792 33.2836 17.6181 33.4053 18.3932L33.4114 18.4326C33.5372 19.2362 33.6677 20.0669 33.4366 20.8271C33.4237 20.8692 33.3822 20.8753 33.3584 20.8753C33.321 20.8753 33.2843 20.8597 33.2653 20.8359C33.2599 20.8291 33.2565 20.823 33.2537 20.8169C33.0899 20.3622 33.0253 19.864 32.9635 19.3828C32.9281 19.1072 32.8908 18.8222 32.8357 18.5459C32.6556 17.6412 32.4707 16.9564 32.2369 16.3252C31.9657 15.5921 31.6414 14.9107 31.2737 14.3012C31.1235 14.0515 30.9631 13.8098 30.7972 13.5831C30.5009 13.178 30.1787 12.8074 29.8402 12.4809C28.6058 11.2938 27.1226 10.5452 25.5504 10.3178C25.1365 10.2574 24.7069 10.2283 24.2372 10.2283C23.3835 10.2283 22.5426 10.3287 21.9057 10.4169C21.8276 10.4278 21.7127 10.4509 21.5781 10.478C21.2885 10.5371 20.893 10.6165 20.619 10.6165C20.4409 10.6165 20.3764 10.5812 20.3668 10.5629C20.3587 10.5466 20.3546 10.531 20.3546 10.5147C20.3573 10.3226 20.9065 10.0436 21.6617 9.85224C22.4726 9.64659 23.3019 9.54206 24.1264 9.54206Z" fill="#008DD2" stroke="#008DD2" stroke-width="0.00667" stroke-miterlimit="2.61313"/>
<path d="M19.6704 16.1044C19.5297 15.7298 19.3822 15.3619 19.423 14.9581C19.4366 14.8217 19.614 14.6988 19.7261 14.8312C20.1469 15.3314 20.2774 16.0623 20.5479 16.6528C20.8157 17.2365 21.1338 17.8026 21.5777 18.2709C21.9774 18.6931 22.4919 18.989 23.0785 19.0345C23.8717 19.0962 24.5338 18.7229 25.2536 18.4664C25.3563 18.4297 25.4297 18.5722 25.3569 18.6435C24.2741 19.7003 22.5674 19.8611 21.3921 18.9035C20.8463 18.4582 20.4548 17.825 20.1394 17.2053C19.9579 16.8503 19.8104 16.4764 19.6704 16.1037V16.1044Z" fill="#008DD2" stroke="#008DD2" stroke-width="0.00667" stroke-miterlimit="2.61313"/>
<path d="M23.1774 19.6478C24.0026 19.6478 24.821 19.3105 25.4233 18.7227C25.4851 18.6623 25.5028 18.5693 25.4688 18.4851C25.426 18.3793 25.3097 18.325 25.2057 18.3623C25.0446 18.42 24.8869 18.4831 24.7299 18.5456C24.1834 18.7641 23.6702 18.9691 23.0768 18.9243C22.5555 18.8835 22.0607 18.6311 21.6474 18.1946C21.2749 17.8017 20.9541 17.2974 20.6373 16.6058C20.5483 16.411 20.4749 16.2026 20.3981 15.9827C20.2472 15.5517 20.0908 15.1058 19.7992 14.759C19.7469 14.6965 19.6769 14.6626 19.6014 14.6626C19.4546 14.6626 19.3173 14.7922 19.3017 14.9456C19.2602 15.3569 19.4002 15.7295 19.5362 16.0899L19.5552 16.1415C19.6898 16.5012 19.8407 16.8854 20.029 17.2546C20.2866 17.7603 20.6999 18.4899 21.3109 18.9881C21.8397 19.419 22.4848 19.6464 23.1768 19.6464L23.1774 19.6478ZM25.2805 18.57C24.7075 19.113 23.9455 19.4272 23.1774 19.4272C22.5365 19.4272 21.9403 19.2168 21.4516 18.8177C20.8725 18.346 20.4755 17.6428 20.2274 17.1555C20.0439 16.7958 19.8964 16.4191 19.7639 16.0655L19.7442 16.0133C19.6116 15.661 19.4865 15.3284 19.5226 14.968C19.5266 14.9253 19.5715 14.8839 19.6021 14.8839C19.6062 14.8839 19.6157 14.8839 19.6306 14.9015C19.8964 15.2171 20.0453 15.6433 20.1894 16.0553C20.2648 16.2705 20.343 16.4931 20.4361 16.6974C20.7631 17.4114 21.0968 17.9347 21.4856 18.3453C21.9376 18.8225 22.4814 19.098 23.0585 19.1428C23.7022 19.1937 24.2657 18.967 24.8108 18.7492C24.9658 18.6874 25.1208 18.6256 25.2791 18.5686L25.2805 18.57Z" fill="#008DD2" stroke="#008DD2" stroke-width="0.00667" stroke-miterlimit="2.61313"/>
<path d="M23.9157 24.0797C23.6411 24.204 23.3746 24.3465 23.1265 24.5304C22.3992 25.0707 22.3231 25.917 22.5325 26.7444C22.5984 27.0043 22.3741 27.1795 22.1321 27.0973C20.7692 26.6358 19.3704 27.343 18.5588 28.4439C18.1849 28.9502 17.9464 29.5923 17.9334 30.2235C17.9266 30.5452 17.9878 30.8567 18.1 31.1574C18.2332 31.5151 18.4908 31.7934 18.6662 32.1259C18.7593 32.3024 18.6043 32.5576 18.3984 32.4653C18.3909 32.4626 18.3841 32.4599 18.3773 32.4558C17.6683 32.0615 17.3523 31.1038 17.3305 30.3369C17.3081 29.5285 17.614 28.7622 18.0701 28.1073C18.9279 26.874 20.4307 26.1817 21.8915 26.4505C21.797 25.7806 21.8779 25.1229 22.3027 24.5467C22.7404 23.9522 23.482 23.6291 24.1448 23.3596C24.94 23.0359 25.7251 22.7854 26.207 22.0158C26.4137 21.6859 26.5204 21.3011 26.4864 20.9122C26.4436 20.4269 26.099 20.0923 25.8169 19.7285C25.736 19.6247 25.8685 19.5208 25.9678 19.5561C26.8045 19.8479 27.16 20.8362 26.9554 21.6466C26.7399 22.4997 26.0507 23.1601 25.2724 23.5198C25.1657 23.5694 25.0569 23.6155 24.9482 23.6603C24.6505 23.7832 24.3487 23.8931 24.0544 24.0193C24.0081 24.0397 23.9612 24.0594 23.9157 24.0804V24.0797Z" fill="#008DD2" stroke="#008DD2" stroke-width="0.00667" stroke-miterlimit="2.61313"/>
<path d="M18.4894 32.5807C18.5907 32.5807 18.6858 32.5243 18.7422 32.43C18.8075 32.3221 18.8129 32.1877 18.7565 32.0805C18.6838 31.9427 18.5981 31.8144 18.5145 31.6902C18.3895 31.5035 18.2719 31.3271 18.1951 31.1235C18.0829 30.8221 18.0285 30.5201 18.0353 30.2255C18.0476 29.6357 18.2685 29.0079 18.6416 28.5016C19.3112 27.5935 20.2934 27.0512 21.2701 27.0512C21.5543 27.0512 21.8357 27.098 22.1062 27.1896C22.2802 27.2487 22.4665 27.1991 22.567 27.0695C22.6411 26.9745 22.6636 26.8509 22.6309 26.7213C22.4658 26.0691 22.4284 25.1731 23.1883 24.6084C23.4038 24.4489 23.6485 24.3091 23.9598 24.1686C24.0053 24.1483 24.0509 24.1286 24.0971 24.1082C24.265 24.0363 24.4356 23.9698 24.6062 23.9026C24.734 23.8524 24.8625 23.8021 24.9896 23.7499C25.0997 23.7044 25.2091 23.6576 25.3172 23.608C26.2015 23.1994 26.8507 22.4752 27.0539 21.671C27.2592 20.8578 26.9166 19.7834 26.0044 19.4651C25.8977 19.4285 25.7672 19.4828 25.7196 19.5798C25.6863 19.647 25.6958 19.7251 25.7448 19.7882C25.793 19.8506 25.844 19.9124 25.8943 19.9742C26.1349 20.2687 26.3613 20.547 26.3939 20.9203C26.4252 21.276 26.3334 21.637 26.1288 21.9635C25.7108 22.6313 25.0474 22.896 24.3445 23.1764L24.1121 23.27C23.4004 23.5598 22.6683 23.8924 22.2292 24.489C21.852 25.0007 21.7058 25.6055 21.784 26.3338C21.612 26.3086 21.4373 26.2957 21.2627 26.2957C20.0004 26.2957 18.7484 26.9683 17.9952 28.0516C17.4793 28.7941 17.2176 29.5848 17.2387 30.3389C17.2598 31.0841 17.5595 32.1076 18.3351 32.5393L18.3609 32.5515C18.4051 32.5712 18.4479 32.5807 18.4894 32.5807ZM21.2701 26.857C20.2329 26.857 19.1922 27.4285 18.486 28.3862C18.0897 28.9237 17.8552 29.5923 17.8416 30.2208C17.8348 30.5398 17.8926 30.8662 18.0143 31.19C18.0985 31.4146 18.2284 31.6088 18.3541 31.7961C18.435 31.9169 18.5179 32.0411 18.5859 32.1694C18.6111 32.2169 18.607 32.2793 18.5771 32.3295C18.5635 32.3519 18.5125 32.4069 18.4432 32.3764C17.7696 32.0031 17.4535 31.0827 17.4324 30.3334C17.412 29.6208 17.6615 28.8694 18.1543 28.1615C18.8721 27.1299 20.0629 26.4892 21.2627 26.4892C21.4693 26.4892 21.6766 26.5082 21.8785 26.5448L22.0104 26.5693L21.9913 26.4362C21.888 25.7025 22.0165 25.1026 22.3849 24.603C22.7954 24.0465 23.4704 23.739 24.1855 23.4478L24.4166 23.3549C25.1493 23.063 25.842 22.7868 26.2933 22.0653C26.5203 21.7029 26.6216 21.3004 26.5869 20.9027C26.5489 20.4703 26.2926 20.1554 26.0445 19.8513C25.9949 19.7909 25.946 19.7298 25.8984 19.6687C25.8957 19.6579 25.912 19.645 25.9317 19.645C26.7501 19.9287 27.0519 20.8918 26.867 21.6221C26.678 22.3707 26.0683 23.0467 25.237 23.4309C25.131 23.4797 25.0243 23.5259 24.9169 23.57C24.7904 23.6223 24.6633 23.6718 24.5362 23.7214C24.3636 23.7892 24.1916 23.8564 24.0217 23.929C23.9748 23.9494 23.9279 23.9705 23.8816 23.9908C23.5574 24.1374 23.3011 24.284 23.0748 24.4523C22.4053 24.9498 22.1871 25.7501 22.4447 26.7675C22.463 26.8394 22.4529 26.9018 22.4161 26.9493C22.3652 27.0145 22.2666 27.0383 22.1694 27.005C21.8785 26.9066 21.5767 26.8564 21.2708 26.8564L21.2701 26.857Z" fill="#008DD2" stroke="#008DD2" stroke-width="0.00667" stroke-miterlimit="2.61313"/>
<path d="M17.4075 33.8278C17.5394 33.7165 17.6985 33.8746 17.6856 34.011C17.6366 34.5065 17.4728 34.9592 17.5836 35.4635C17.6788 35.8945 17.918 36.299 18.2083 36.6275C18.5379 37.0021 18.7751 37.2268 19.1755 37.5213C19.2394 37.5682 19.6146 37.8363 19.8178 37.915C20.3487 38.1492 20.9645 38.3881 21.4859 38.5686C22.897 39.0559 24.4318 39.2147 25.9102 39.0003C27.4308 38.7797 28.7786 38.0562 29.8798 36.9967C30.9007 36.0146 31.6172 34.7454 32.1045 33.4273C32.354 32.7534 32.5219 32.0611 32.6619 31.3579C32.804 30.6473 32.8114 29.8946 33.0582 29.2111C33.1132 29.0577 33.3756 29.0367 33.4273 29.2064C33.655 29.9543 33.5204 30.7776 33.4008 31.5378C33.275 32.3407 33.0439 33.1382 32.7618 33.899C32.1977 35.4187 31.3018 36.8128 30.0973 37.9021C27.7686 40.0075 24.4359 40.3747 21.5022 39.5093C20.8374 39.3132 20.1903 39.0444 19.5813 38.7071C19.3101 38.574 19.0532 38.4071 18.8078 38.2469C18.2749 37.8987 17.8086 37.482 17.4171 36.9804C16.7401 36.1144 16.46 34.628 17.4075 33.8278Z" fill="#008DD2" stroke="#008DD2" stroke-width="0.00667" stroke-miterlimit="2.61313"/>
<path d="M24.4718 40.0474C26.6973 40.0474 28.6651 39.3314 30.1632 37.9773C31.3364 36.9165 32.2676 35.5183 32.8556 33.9342C33.1669 33.0953 33.3837 32.2944 33.4999 31.5526L33.5061 31.5153C33.6223 30.7741 33.7542 29.9339 33.5231 29.1757C33.4877 29.059 33.3803 28.9836 33.2505 28.9836C33.1166 28.9836 32.999 29.061 32.9575 29.1757C32.7957 29.6244 32.7339 30.1028 32.6741 30.5657C32.6414 30.8209 32.6075 31.085 32.5572 31.3368C32.39 32.175 32.2193 32.8082 32.0039 33.3906C31.4642 34.8484 30.7246 36.0362 29.805 36.9212C28.6773 38.0058 27.3247 38.6886 25.8918 38.8963C25.4697 38.9581 25.0353 38.9886 24.601 38.9886C23.5529 38.9886 22.5149 38.8142 21.5164 38.4687C20.9713 38.2807 20.3663 38.0438 19.8558 37.8192C19.675 37.7486 19.3379 37.5138 19.2332 37.4364C18.8546 37.1588 18.6242 36.945 18.2823 36.5574C18.0668 36.3124 17.7874 35.9201 17.6814 35.4396C17.608 35.107 17.6617 34.7962 17.7188 34.4663C17.7439 34.3217 17.7698 34.1724 17.7847 34.0191C17.7929 33.9362 17.7616 33.8467 17.7011 33.7801C17.6019 33.6702 17.4462 33.6546 17.3375 33.7469C16.377 34.558 16.587 36.0891 17.3327 37.0427C17.7188 37.5368 18.1953 37.9712 18.7486 38.3323C18.9844 38.4857 19.2516 38.6601 19.533 38.7986C20.1393 39.1345 20.7925 39.4074 21.4702 39.6069C22.4599 39.8988 23.4706 40.0467 24.4725 40.0467L24.4718 40.0474ZM33.2505 29.1907C33.2729 29.1907 33.3123 29.1968 33.3246 29.2361C33.5414 29.9488 33.4191 30.7293 33.3008 31.4834L33.2947 31.5207C33.1805 32.2483 32.9677 33.0363 32.6605 33.8623C32.0841 35.4158 31.1719 36.7855 30.0232 37.8239C28.5638 39.1433 26.6436 39.8404 24.4705 39.8404C23.4876 39.8404 22.4972 39.6952 21.5266 39.4094C20.8639 39.2133 20.2249 38.9472 19.6268 38.616C19.3522 38.4809 19.0905 38.3106 18.8594 38.1599C18.3258 37.811 17.8656 37.3929 17.4938 36.9165C16.8073 36.0389 16.6027 34.6387 17.4693 33.9064C17.485 33.8935 17.4945 33.8935 17.4979 33.8935C17.5122 33.8935 17.5305 33.9037 17.5455 33.9206C17.5665 33.9437 17.5794 33.9756 17.5767 34.0007C17.5625 34.1466 17.5373 34.2919 17.5128 34.4324C17.4551 34.767 17.3952 35.1131 17.4775 35.4857C17.593 36.0097 17.8935 36.4332 18.1253 36.6959C18.478 37.0963 18.7173 37.3169 19.1088 37.6047C19.1129 37.6074 19.5398 37.9203 19.775 38.0119C20.2861 38.2373 20.8972 38.4769 21.4471 38.6669C22.468 39.0192 23.5284 39.1976 24.5996 39.1976C25.0435 39.1976 25.488 39.1664 25.9203 39.1033C27.396 38.8888 28.7881 38.1864 29.947 37.0719C30.8898 36.1652 31.6463 34.9509 32.1969 33.4632C32.4165 32.87 32.5898 32.2272 32.759 31.3782C32.8107 31.1189 32.8454 30.8515 32.8787 30.5929C32.9371 30.1409 32.9976 29.6732 33.1512 29.2463C33.1642 29.2103 33.2104 29.1913 33.2491 29.1913L33.2505 29.1907Z" fill="#008DD2" stroke="#008DD2" stroke-width="0.00667" stroke-miterlimit="2.61313"/>
<path d="M22.0533 33.9887C22.0607 33.9887 22.0675 33.9887 22.0743 33.9887C22.4686 33.9764 22.752 33.5984 22.8193 33.3466C22.9825 32.7344 23.3434 32.41 23.6928 32.0951C24.0924 31.736 24.5451 31.3281 24.3929 30.5741C24.2964 30.0949 24.07 29.7555 23.7206 29.5662C23.1626 29.2628 22.489 29.4712 22.2252 29.5757C22.0553 29.6429 21.9717 29.835 22.0383 30.0046C22.1056 30.175 22.298 30.2585 22.4686 30.1913C22.6066 30.137 23.0824 29.9727 23.4039 30.1478C23.5752 30.2408 23.686 30.4234 23.7424 30.7051C23.8165 31.0736 23.6445 31.2467 23.2489 31.6037C22.8669 31.9471 22.3918 32.3747 22.1777 33.1763C22.1641 33.217 22.1029 33.295 22.0608 33.3208C22.0308 33.2944 21.95 33.2027 21.8616 32.938C21.8038 32.7649 21.6155 32.6713 21.4422 32.729C21.2682 32.7867 21.1744 32.974 21.2328 33.1477C21.4191 33.7063 21.6951 33.9893 22.0526 33.9893L22.0533 33.9887Z" fill="#008DD2"/>
<path d="M22.2669 32.1451C22.3349 32.1451 22.4015 32.1146 22.445 32.0562C22.498 31.9843 22.5014 31.8906 22.46 31.8173C22.4341 31.7433 22.4131 31.5872 22.4233 31.5058C22.5415 31.5241 22.6462 31.5017 22.74 31.442C23.0269 31.2587 23.1383 30.7504 23.158 30.6506C23.1811 30.5311 23.1037 30.4151 22.984 30.392C22.863 30.3689 22.7482 30.4463 22.7244 30.5658C22.6748 30.8176 22.5599 31.049 22.498 31.0721C22.2982 31.0219 22.1181 31.1013 22.0338 31.2798C21.9318 31.497 21.9944 31.9965 22.1371 32.1017C22.1765 32.1309 22.2227 32.1451 22.2683 32.1451H22.2669Z" fill="#008DD2"/>
<path d="M25.021 29.9402C25.0727 29.9402 25.125 29.928 25.174 29.9022L26.1704 29.3823C26.3329 29.2975 26.3954 29.0973 26.3105 28.9357C26.2262 28.7735 26.0257 28.7111 25.8632 28.7959L24.8674 29.3158C24.7049 29.4007 24.6424 29.6009 24.7274 29.7624C24.7865 29.8758 24.9021 29.9402 25.0217 29.9402H25.021Z" fill="#008DD2"/>
<path d="M26.3486 30.8676C26.5287 30.8676 26.6762 30.723 26.6796 30.5425C26.683 30.3599 26.5376 30.2086 26.354 30.2052L25.2305 30.1848C25.2277 30.1848 25.2264 30.1848 25.2243 30.1848C25.0442 30.1848 24.896 30.3294 24.8933 30.5099C24.8899 30.6925 25.0354 30.8432 25.2189 30.8466L26.3425 30.8676C26.3445 30.8676 26.3466 30.8676 26.3486 30.8676Z" fill="#008DD2"/>
<path d="M24.4133 29.2463C24.5268 29.2463 24.6362 29.1886 24.6988 29.0841L25.2725 28.119C25.3663 27.9622 25.3139 27.7586 25.1569 27.6649C24.9992 27.5719 24.796 27.6235 24.7022 27.7803L24.1285 28.7454C24.0347 28.9029 24.087 29.1058 24.244 29.1995C24.2971 29.2307 24.3555 29.2463 24.4133 29.2463Z" fill="#008DD2"/>
</svg>
