<svg width="51" height="51" viewBox="0 0 51 51" fill="none" xmlns="http://www.w3.org/2000/svg">
<path d="M2.02806 25.7012C2.02806 38.539 12.4514 48.9512 25.3155 48.9512C38.1797 48.9512 48.603 38.539 48.603 25.7012C48.603 12.8633 38.1797 2.45117 25.3155 2.45117C12.4514 2.45117 2.02806 12.8633 2.02806 25.7012Z" fill="#FFE4CF" stroke="#FFF5EE" stroke-width="4"/>
<path d="M21.3463 38.1417C20.3587 38.1417 19.0028 37.9499 18.1541 37.0342C17.5059 36.3351 17.2336 35.4946 17.387 34.6686C17.5287 33.9061 18.1016 32.7985 20.027 31.8524C21.2848 31.2341 22.6822 30.8801 23.9835 30.849V14.4191C23.9835 14.0182 24.3083 13.6938 24.7098 13.6938H27.1764C27.5544 13.6938 27.8916 13.983 27.9227 14.3591C28.0506 15.8931 28.5903 16.3216 29.4846 17.0331C30.1833 17.5879 31.0527 18.2787 31.8586 19.6354C33.6264 22.6116 32.3091 25.0718 31.3651 25.9564C31.1211 26.1855 30.7528 26.2187 30.4715 26.0358C30.1909 25.8536 30.0714 25.5038 30.1819 25.1884C31.1612 22.3929 29.8067 20.9603 27.902 19.9597V32.8634C28.392 34.5009 27.0119 36.4628 24.6255 37.4786C23.6359 37.8995 22.4403 38.1411 21.3449 38.1411L21.3463 38.1417ZM24.1722 32.2975C23.036 32.2975 21.792 32.6018 20.669 33.1539C19.5881 33.6853 18.9295 34.3174 18.8155 34.9336C18.7457 35.3083 18.8818 35.6837 19.2205 36.0488C19.5992 36.4566 20.3739 36.6912 21.3463 36.6912C22.253 36.6912 23.2406 36.4918 24.0568 36.1447C25.8709 35.3725 26.7817 34.0137 26.4949 33.2291C26.4652 33.1497 26.4507 33.0649 26.4507 32.98V18.8142C26.4507 18.5699 26.5737 18.3422 26.7783 18.2083C26.9829 18.0744 27.2406 18.0517 27.4652 18.1483C28.0824 18.4146 29.2379 18.9136 30.2234 19.7865C29.6767 19.0378 29.1218 18.5968 28.5814 18.1676C27.7002 17.4672 26.8633 16.8019 26.5627 15.1444H25.4376V31.5943C25.4376 31.7972 25.3519 31.9911 25.2026 32.1284C25.0526 32.2651 24.8515 32.3334 24.6497 32.3168C24.497 32.3037 24.3366 32.2975 24.1735 32.2975H24.1722Z" fill="#FF811B"/>
</svg>
