<svg width="50" height="50" viewBox="0 0 50 50" fill="none" xmlns="http://www.w3.org/2000/svg">
<path d="M2.00003 24.7874C2.00003 37.3698 12.216 47.5748 24.8242 47.5748C37.4325 47.5748 47.6484 37.3698 47.6484 24.7874C47.6484 12.2051 37.4325 2 24.8242 2C12.216 2 2.00003 12.2051 2.00003 24.7874Z" fill="#C9EDFF" stroke="#E2F5FF" stroke-width="4"/>
<path d="M15.4176 34.9049C17.0557 34.9049 18.5912 34.2357 19.6951 33.0548C20.1954 33.1416 20.7045 33.1851 21.2143 33.1851C23.6497 33.1851 26.0036 32.1656 27.6723 30.3888C29.2167 28.7442 30.067 26.5981 30.067 24.3455C30.067 19.9793 26.9376 16.3095 22.6254 15.6192C22.1571 15.5439 21.6819 15.5059 21.2136 15.5059C16.3318 15.5059 12.3602 19.4716 12.3602 24.3455C12.3602 27.2748 13.7686 29.9483 16.1565 31.603C16.1177 31.7048 16.0756 31.8046 16.03 31.9037C15.7153 32.5783 15.2334 33.1667 14.6346 33.6038L13.061 34.7536L15.0064 34.8907C15.1437 34.9002 15.2803 34.9056 15.4169 34.9056L15.4176 34.9049ZM19.1486 31.4815L18.8699 31.8283C18.3649 32.4568 17.6899 32.9306 16.9388 33.2061C17.0836 32.9821 17.2134 32.7473 17.3263 32.505C17.4799 32.1745 17.6036 31.8276 17.6933 31.4754L17.8238 30.9636L17.3711 30.6901C15.1287 29.3327 13.7897 26.9606 13.7897 24.3455C13.7897 20.2582 17.1203 16.9325 21.2136 16.9325C21.6065 16.9325 22.0048 16.9644 22.399 17.0275C26.0145 17.6065 28.6382 20.6838 28.6382 24.3455C28.6382 26.2343 27.9245 28.0343 26.6297 29.4134C25.2097 30.9256 23.2861 31.7591 21.2143 31.7591C20.6644 31.7591 20.1159 31.6987 19.5836 31.5792L19.1493 31.4822L19.1486 31.4815Z" fill="#008DD2"/>
<path d="M34.2446 32.438C34.3812 32.438 34.5185 32.4332 34.6558 32.423L36.6019 32.2853L35.0276 31.1355C34.4295 30.6984 33.9469 30.1107 33.6322 29.4347C33.5859 29.3362 33.5438 29.2358 33.5057 29.1347C35.8936 27.48 37.302 24.8072 37.302 21.8771C37.302 17.0026 33.3304 13.0369 28.4486 13.0369C26.0131 13.0369 23.6593 14.0563 21.9905 15.8332L21.0709 16.8126L22.3991 17.025C26.0145 17.604 28.6382 20.6813 28.6382 24.3429C28.6382 26.2318 27.9245 28.0318 26.6297 29.4109L25.71 30.3903L27.0382 30.6034C28.0149 30.7602 29.0066 30.7527 29.9685 30.5864C31.0723 31.7674 32.6078 32.4366 34.246 32.4366L34.2446 32.438ZM28.4486 14.4649C32.5426 14.4649 35.8725 17.7906 35.8725 21.8778C35.8725 24.4929 34.5335 26.8644 32.2911 28.2218L31.8384 28.496L31.9689 29.0078C32.0586 29.3607 32.1823 29.7068 32.3359 30.0374C32.4495 30.2803 32.5786 30.5152 32.7234 30.7392C31.9723 30.4636 31.2973 29.9899 30.7923 29.3614L30.5136 29.0145L30.0793 29.1116C29.579 29.2236 29.0651 29.2833 28.5506 29.2901C29.5355 27.8383 30.0663 26.1246 30.0663 24.3443C30.0663 20.4552 27.5826 17.118 23.9923 15.9472C25.2688 14.9841 26.8118 14.4642 28.4486 14.4642V14.4649Z" fill="#008DD2"/>
<path d="M24.159 23.478C24.5811 23.478 24.923 23.8201 24.923 24.2409C24.923 24.6624 24.5811 25.0038 24.159 25.0038C23.7369 25.0038 23.395 24.6624 23.395 24.2409C23.395 23.8194 23.7369 23.478 24.159 23.478Z" fill="#008DD2"/>
<path d="M21.1719 23.4787C21.594 23.4787 21.9359 23.8208 21.9359 24.2416C21.9359 24.6631 21.5933 25.0045 21.1719 25.0045C21.0801 25.0045 20.9931 24.9855 20.9116 24.9563C20.6186 24.8497 20.4079 24.5714 20.4079 24.2416C20.4079 24.0828 20.4568 23.9355 20.5398 23.8133C20.6771 23.6111 20.9095 23.478 21.1719 23.478V23.4787Z" fill="#008DD2"/>
<path d="M18.2509 23.478C18.673 23.478 19.0149 23.8201 19.0149 24.2409C19.0149 24.6624 18.6723 25.0038 18.2509 25.0038C17.8288 25.0038 17.4869 24.6624 17.4869 24.2409C17.4869 23.8194 17.8288 23.478 18.2509 23.478Z" fill="#008DD2"/>
</svg>
