<svg width="50" height="50" viewBox="0 0 50 50" fill="none" xmlns="http://www.w3.org/2000/svg">
<path d="M2.00002 24.7874C2.00002 37.3698 12.216 47.5748 24.8242 47.5748C37.4325 47.5748 47.6484 37.3698 47.6484 24.7874C47.6484 12.2051 37.4325 2 24.8242 2C12.216 2 2.00002 12.2051 2.00002 24.7874Z" fill="#C9EDFF" stroke="#E2F5FF" stroke-width="4"/>
<path d="M29.874 23.3857C29.4781 23.3857 29.1571 23.7062 29.1571 24.1009C29.1571 24.4962 29.4775 24.8168 29.874 24.8168C30.1434 24.8168 30.4069 24.7936 30.6633 24.7497V32.5054H18.0973V24.7497C18.3537 24.7942 18.6179 24.8168 18.8866 24.8168C19.2825 24.8168 19.6028 24.4962 19.6028 24.1009C19.6028 23.7056 19.2825 23.3857 18.8866 23.3857C18.0024 23.3857 17.2015 23.0278 16.6222 22.4493C16.0428 21.8702 15.6844 21.0711 15.6844 20.1883C15.6844 19.3054 16.0428 18.5063 16.6222 17.9278C17.175 17.3752 17.9307 17.0237 18.7671 16.9934C18.9195 17.0063 19.0622 17.0785 19.1921 17.1649L19.1882 17.1604C19.2508 17.2049 19.3212 17.2404 19.3994 17.2642C19.7779 17.3784 20.1783 17.1643 20.292 16.7864C20.5632 15.8893 21.1109 15.136 21.8233 14.6079C22.5364 14.079 23.418 13.774 24.3558 13.774C25.322 13.774 26.2262 14.0977 26.9483 14.6536C27.6723 15.2108 28.2168 16.0015 28.4622 16.9334C28.5629 17.3145 28.9531 17.5422 29.3354 17.4422C29.6428 17.3597 29.9709 16.9656 30.2719 17.0172C30.9972 17.1075 31.647 17.439 32.1378 17.9291C32.7172 18.5076 33.0756 19.3067 33.0756 20.1895C33.0756 21.0724 32.7172 21.8715 32.1378 22.4506C31.5585 23.0284 30.7576 23.387 29.8734 23.387L29.874 23.3857ZM32.0894 24.2551C32.4808 24.0422 32.8386 23.774 33.1512 23.4612C33.9895 22.6241 34.5088 21.4665 34.5088 20.1889C34.5088 18.9113 33.9902 17.7537 33.1512 16.9166C32.3122 16.0789 31.1535 15.561 29.8734 15.561C29.763 15.561 29.6461 15.5655 29.5214 15.5752L29.482 15.5784C29.0939 14.7626 28.5203 14.0616 27.8208 13.5238C26.8507 12.777 25.6423 12.3423 24.3551 12.3423C23.106 12.3423 21.928 12.7524 20.9714 13.4612C20.2364 14.0068 19.6326 14.7278 19.2289 15.5739C19.1081 15.5643 18.9931 15.5604 18.8853 15.5604C17.6058 15.5604 16.4465 16.0782 15.6075 16.916C14.7692 17.7537 14.2499 18.9107 14.2499 20.1883C14.2499 21.4658 14.7692 22.6234 15.6075 23.4605C15.9188 23.7714 16.274 24.0377 16.6629 24.2505V33.2199C16.6629 33.6153 16.9838 33.9351 17.3798 33.9351H31.3789C31.7748 33.9351 32.0958 33.6146 32.0958 33.2199V24.3537C32.0958 24.3202 32.0932 24.2867 32.0887 24.2544L32.0894 24.2551Z" fill="#008DD2"/>
<path d="M24.2391 15.2089C24.4832 15.2019 24.6763 14.9987 24.6692 14.7543C24.6628 14.5105 24.4593 14.3177 24.2145 14.3241C23.4641 14.3441 22.8117 14.6047 22.2847 14.9974C21.6879 15.4424 21.2494 16.0622 21.0097 16.7006C20.9245 16.9296 21.0414 17.1843 21.2707 17.2694C21.5 17.3546 21.7551 17.2385 21.8403 17.0095C22.0231 16.5239 22.3583 16.0506 22.8163 15.7088C23.2076 15.4166 23.6895 15.2238 24.2391 15.2089Z" fill="#008DD2"/>
<path fill-rule="evenodd" clip-rule="evenodd" d="M31.3605 34.9067H21.2946C20.8994 34.9067 20.5758 35.2298 20.5758 35.6245C20.5758 36.0199 20.8994 36.3423 21.2946 36.3423H31.3605C31.7557 36.3423 32.08 36.0192 32.08 35.6245C32.08 35.2298 31.7564 34.9067 31.3605 34.9067Z" fill="#008DD2"/>
<path fill-rule="evenodd" clip-rule="evenodd" d="M18.4626 34.9067H17.3711C16.9759 34.9067 16.6523 35.2298 16.6523 35.6245C16.6523 36.0192 16.9759 36.3423 17.3711 36.3423H18.4626C18.8579 36.3423 19.1821 36.0192 19.1821 35.6245C19.1821 35.2298 18.8586 34.9067 18.4626 34.9067Z" fill="#008DD2"/>
</svg>
