<svg width="50" height="50" viewBox="0 0 50 50" fill="none" xmlns="http://www.w3.org/2000/svg">
<path d="M2.35159 24.7874C2.35159 37.3698 12.5675 47.5748 25.1758 47.5748C37.7841 47.5748 48 37.3698 48 24.7874C48 12.2051 37.7841 2 25.1758 2C12.5675 2 2.35159 12.2051 2.35159 24.7874Z" fill="#E7FCB3" stroke="#F5FFDC" stroke-width="4"/>
<path d="M18.9491 20.4342C18.9491 20.4342 24.004 18.3359 25.0462 21.5943C26.0038 24.5873 24.0739 26.406 20.0537 26.6206C22.2631 26.8787 25.2507 27.551 25.7971 29.9433C25.9736 30.7164 25.8854 34.9124 21.7762 34.9989C17.6671 35.0847 14.9282 30.273 14 26.278" stroke="#87AB24" stroke-width="1.5" stroke-miterlimit="10"/>
<path d="M24.5769 28.2249C24.5769 28.2249 27.2938 30.0266 29.4822 27.103C31.6706 24.1793 33.7633 25.2904 34.2876 26.7346C34.8454 28.2725 35.8539 32.3216 30.1257 32.8847" stroke="#87AB24" stroke-width="1.5" stroke-miterlimit="10"/>
<path d="M25 13.8462C25 13.8462 26.0169 18.3719 29.8183 18.0617C33.6197 17.7515 33.8846 13.9718 33.8846 13.8462" stroke="#87AB24" stroke-width="1.5" stroke-miterlimit="10"/>
<path d="M30.4999 14.0577C30.4999 14.6417 30.0262 15.1154 29.4422 15.1154C28.8582 15.1154 28.3845 14.6417 28.3845 14.0577C28.3845 13.473 28.8582 13 29.4422 13C30.0262 13 30.4999 13.4737 30.4999 14.0577Z" fill="#87AB24"/>
</svg>
