<svg width="50" height="50" viewBox="0 0 50 50" fill="none" xmlns="http://www.w3.org/2000/svg">
<path d="M2.35159 24.7874C2.35159 37.3698 12.5675 47.5748 25.1758 47.5748C37.7841 47.5748 48 37.3698 48 24.7874C48 12.2051 37.7841 2 25.1758 2C12.5675 2 2.35159 12.2051 2.35159 24.7874Z" fill="#FFE4CF" stroke="#FFF5EE" stroke-width="4"/>
<path d="M25.3037 34.9847C25.2089 34.9847 25.1126 34.9667 25.0207 34.9298C24.732 34.8142 24.5431 34.5353 24.5431 34.2246V19.5091C24.5431 19.1933 24.6263 18.892 24.7848 18.6355C27.0535 14.9871 31.3317 14.4336 33.68 14.4279C34.1359 14.4279 34.56 14.6034 34.8798 14.9228C35.2019 15.2436 35.3792 15.6707 35.3792 16.1259V30.1868C35.3792 31.1196 34.6171 31.8812 33.6807 31.8841C31.7768 31.8885 28.2301 32.2656 25.8536 34.7492C25.7075 34.9024 25.5077 34.984 25.3037 34.984V34.9847ZM33.6844 15.9475C31.6501 15.9525 27.9588 16.4121 26.078 19.4354C26.078 19.4361 26.0642 19.4592 26.0642 19.5091V32.5634C28.6752 30.6875 31.8513 30.3689 33.6764 30.3653C33.7755 30.3653 33.8573 30.285 33.8573 30.1868V16.1259C33.8573 16.0761 33.8399 16.0327 33.8045 15.998C33.7697 15.9641 33.7307 15.9475 33.6836 15.9475H33.6844Z" fill="#FF811B"/>
<path d="M24.4429 34.984C24.2389 34.984 24.0391 34.9024 23.893 34.7492C21.5157 32.2656 17.9691 31.8885 16.0659 31.8841C15.1287 31.8812 14.3667 31.1196 14.3667 30.1867V16.1259C14.3667 15.67 14.5447 15.2422 14.8675 14.9214C15.1859 14.6035 15.6107 14.4279 16.0615 14.4279C18.4141 14.4336 22.6924 14.9871 24.9596 18.6333C25.1188 18.8906 25.2035 19.1926 25.2035 19.5084V34.2239C25.2035 34.5346 25.0146 34.8135 24.7259 34.9291C24.634 34.9659 24.5385 34.984 24.4429 34.984ZM16.0622 15.9467C16.0152 15.9467 15.9754 15.9641 15.9414 15.9973C15.9059 16.0327 15.8886 16.0754 15.8886 16.1252V30.186C15.8886 30.2843 15.9703 30.3638 16.0709 30.3645C17.8953 30.3681 21.0714 30.6868 23.6831 32.5626V19.5084C23.6831 19.4715 23.6751 19.4455 23.6686 19.4347C21.7886 16.4114 18.0964 15.9518 16.0637 15.9467H16.0622Z" fill="#FF811B"/>
<path d="M25.3751 38C25.1862 38 24.9973 37.9306 24.8497 37.7897C24.5458 37.5 24.5349 37.0194 24.8258 36.716C28.2147 33.1738 33.1414 32.6362 35.777 32.6304C36.002 32.6297 36.1858 32.4484 36.1858 32.2251V14.7594C36.1858 14.3396 36.5259 14 36.9464 14C37.3668 14 37.707 14.3396 37.707 14.7594V32.2251C37.707 33.2822 36.8429 34.1457 35.7813 34.1493C33.3867 34.1544 28.9246 34.6306 25.9258 37.7652C25.7767 37.9212 25.5763 38 25.3758 38H25.3751Z" fill="#FF811B"/>
<path d="M24.3312 38C24.1307 38 23.9302 37.9212 23.7812 37.7652C20.7823 34.6313 16.3195 34.1544 13.9271 34.1493C12.864 34.1457 12 33.2822 12 32.2251V14.7594C12 14.3396 12.3401 14 12.7606 14C13.1803 14 13.5211 14.3396 13.5211 14.7594V32.2251C13.5211 32.4476 13.7049 32.6297 13.9314 32.6304C16.5656 32.6355 21.4922 33.1738 24.8811 36.716C25.1713 37.0187 25.1597 37.5 24.8565 37.7897C24.7089 37.9306 24.52 38 24.3312 38Z" fill="#FF811B"/>
</svg>
