<svg width="50" height="50" viewBox="0 0 50 50" fill="none" xmlns="http://www.w3.org/2000/svg">
<path d="M2.00003 24.7874C2.00003 37.3698 12.216 47.5748 24.8242 47.5748C37.4325 47.5748 47.6484 37.3698 47.6484 24.7874C47.6484 12.2051 37.4325 2 24.8242 2C12.216 2 2.00003 12.2051 2.00003 24.7874Z" fill="#E7FCB3" stroke="#F5FFDC" stroke-width="4"/>
<path d="M33.2082 34.9566C33.2244 34.4565 33.2837 30.9505 32.6398 31.1714" stroke="#87AB24" stroke-width="1.2" stroke-miterlimit="10" stroke-linecap="round" stroke-linejoin="round"/>
<path d="M32.6196 31.172L32.5587 31.1832" stroke="#87AB24" stroke-width="1.2" stroke-miterlimit="10" stroke-linecap="round" stroke-linejoin="round"/>
<path d="M32.5768 31.1811C32.5343 31.1888 32.4941 31.1965 32.4516 31.2035C32.337 31.226 32.2185 31.2463 32.0983 31.2695C30.9788 27.2052 31.0978 22.5075 32.0944 18.951C32.6142 19.0477 32.8434 19.1417 32.9596 18.8415C32.9814 18.7833 32.9876 18.7349 32.9898 18.7174" stroke="#87AB24" stroke-width="1.2" stroke-miterlimit="10" stroke-linecap="round" stroke-linejoin="round"/>
<path d="M32.9681 18.7162L32.9801 18.6445" stroke="#87AB24" stroke-width="1.2" stroke-miterlimit="10" stroke-linecap="round" stroke-linejoin="round"/>
<path d="M32.9948 18.6463C33.0165 18.4948 33.0372 18.3475 33.0551 18.2058" stroke="#87AB24" stroke-width="1.2" stroke-miterlimit="10" stroke-linecap="round" stroke-linejoin="round"/>
<path d="M33.3499 17.2811L33.8881 17.7693" stroke="#87AB24" stroke-width="1.2" stroke-miterlimit="10" stroke-linecap="round" stroke-linejoin="round"/>
<path d="M33.8954 17.7692C33.9904 17.8554 34.119 17.8554 34.2162 17.7692" stroke="#87AB24" stroke-width="1.2" stroke-miterlimit="10" stroke-linecap="round" stroke-linejoin="round"/>
<path d="M34.2229 17.7704L35.5034 16.609" stroke="#87AB24" stroke-width="1.2" stroke-miterlimit="10" stroke-linecap="round" stroke-linejoin="round"/>
<path d="M35.4785 16.6081C35.6277 16.4742 35.6277 16.1936 35.4785 16.0569" stroke="#87AB24" stroke-width="1.2" stroke-miterlimit="10" stroke-linecap="round" stroke-linejoin="round"/>
<path d="M35.5034 16.0576L34.2229 14.8989" stroke="#87AB24" stroke-width="1.2" stroke-miterlimit="10" stroke-linecap="round" stroke-linejoin="round"/>
<path d="M34.2162 14.8989C34.1195 14.8105 33.9904 14.8105 33.8954 14.8989" stroke="#87AB24" stroke-width="1.2" stroke-miterlimit="10" stroke-linecap="round" stroke-linejoin="round"/>
<path d="M33.8893 14.8972L33.2404 15.4842" stroke="#87AB24" stroke-width="1.2" stroke-miterlimit="10" stroke-linecap="round" stroke-linejoin="round"/>
<path d="M33.0406 18.2055C33.0926 16.6036 32.9992 14.4617 32.9165 14.2085C32.8092 13.9322 32.6102 13.9974 32.4084 14.0339C27.496 14.9568 22.3482 14.9709 17.1915 14.0388C17.0675 14.0149 16.9629 13.9764 16.8567 14.0535C16.717 14.1391 16.7064 14.2835 16.6796 14.4631C16.5303 15.5298 16.6119 17.0462 16.6499 18.2125" stroke="#87AB24" stroke-width="1.2" stroke-miterlimit="10" stroke-linecap="round" stroke-linejoin="round"/>
<path d="M16.4507 15.6516L15.8013 15.0638" stroke="#87AB24" stroke-width="1.2" stroke-miterlimit="10" stroke-linecap="round" stroke-linejoin="round"/>
<path d="M15.7946 15.0637C15.6996 14.9753 15.571 14.9753 15.4738 15.0637" stroke="#87AB24" stroke-width="1.2" stroke-miterlimit="10" stroke-linecap="round" stroke-linejoin="round"/>
<path d="M15.4703 15.0629L14.1898 16.2222" stroke="#87AB24" stroke-width="1.2" stroke-miterlimit="10" stroke-linecap="round" stroke-linejoin="round"/>
<path d="M14.1938 16.2239C14.0446 16.3606 14.0446 16.6412 14.1938 16.7758" stroke="#87AB24" stroke-width="1.2" stroke-miterlimit="10" stroke-linecap="round" stroke-linejoin="round"/>
<path d="M14.1913 16.7739L15.4718 17.9354" stroke="#87AB24" stroke-width="1.2" stroke-miterlimit="10" stroke-linecap="round" stroke-linejoin="round"/>
<path d="M15.4738 17.936C15.5704 18.0216 15.6996 18.0216 15.7946 17.936" stroke="#87AB24" stroke-width="1.2" stroke-miterlimit="10" stroke-linecap="round" stroke-linejoin="round"/>
<path d="M15.8013 17.9348L16.3395 17.4438" stroke="#87AB24" stroke-width="1.2" stroke-miterlimit="10" stroke-linecap="round" stroke-linejoin="round"/>
<path d="M16.6635 18.2122C16.7513 19.1983 16.8787 19.0839 17.6215 18.9409C18.7461 23.0943 18.6354 27.6236 17.6249 31.2797C17.161 31.1948 17.0224 31.1289 16.8916 31.2243C16.7161 31.3316 16.7272 31.542 16.6719 31.9355C16.6194 32.2637 16.4746 33.6019 16.5188 34.9407" stroke="#87AB24" stroke-width="1.2" stroke-miterlimit="10" stroke-linecap="round" stroke-linejoin="round"/>
<path d="M16.5105 34.678C16.5189 34.772 16.5077 35.5975 16.5228 35.6942C16.5524 35.864 16.6698 35.9902 16.8084 35.9979C16.8084 35.9979 21.1692 35.1556 25.6272 35.2678C29.5509 35.3485 32.9615 36 32.9615 36C33.0487 35.9713 33.1253 35.8962 33.1644 35.7946C33.1873 35.7349 33.1929 34.9739 33.1951 34.9557" stroke="#87AB24" stroke-width="1.2" stroke-miterlimit="10" stroke-linecap="round" stroke-linejoin="round"/>
<path d="M17.6842 18.9267C17.6842 18.9267 26.2364 17.2083 32.0968 18.9267" stroke="#87AB24" stroke-width="1.2" stroke-miterlimit="10" stroke-linecap="round" stroke-linejoin="round"/>
<path d="M32.0996 31.3925C32.0996 31.3925 23.5463 33.1935 17.6842 31.3925" stroke="#87AB24" stroke-width="1.2" stroke-miterlimit="10" stroke-linecap="round" stroke-linejoin="round"/>
<path d="M33.4861 34.4917L34.0249 34.9798" stroke="#87AB24" stroke-width="1.2" stroke-miterlimit="10" stroke-linecap="round" stroke-linejoin="round"/>
<path d="M34.0317 34.9797C34.1262 35.066 34.2553 35.066 34.352 34.9797" stroke="#87AB24" stroke-width="1.2" stroke-miterlimit="10" stroke-linecap="round" stroke-linejoin="round"/>
<path d="M34.3591 34.981L35.6391 33.8196" stroke="#87AB24" stroke-width="1.2" stroke-miterlimit="10" stroke-linecap="round" stroke-linejoin="round"/>
<path d="M35.6149 33.8187C35.7641 33.6848 35.7641 33.4042 35.6149 33.2675" stroke="#87AB24" stroke-width="1.2" stroke-miterlimit="10" stroke-linecap="round" stroke-linejoin="round"/>
<path d="M35.6391 33.268L34.3591 32.1094" stroke="#87AB24" stroke-width="1.2" stroke-miterlimit="10" stroke-linecap="round" stroke-linejoin="round"/>
<path d="M34.352 32.1095C34.2553 32.0211 34.1262 32.0211 34.0317 32.1095" stroke="#87AB24" stroke-width="1.2" stroke-miterlimit="10" stroke-linecap="round" stroke-linejoin="round"/>
<path d="M34.0262 32.1077L33.3767 32.6947" stroke="#87AB24" stroke-width="1.2" stroke-miterlimit="10" stroke-linecap="round" stroke-linejoin="round"/>
<path d="M16.3688 32.7756L15.7194 32.1886" stroke="#87AB24" stroke-width="1.2" stroke-miterlimit="10" stroke-linecap="round" stroke-linejoin="round"/>
<path d="M15.7127 32.1886C15.6176 32.1002 15.4891 32.1002 15.3918 32.1886" stroke="#87AB24" stroke-width="1.2" stroke-miterlimit="10" stroke-linecap="round" stroke-linejoin="round"/>
<path d="M15.3884 32.1879L14.1079 33.3465" stroke="#87AB24" stroke-width="1.2" stroke-miterlimit="10" stroke-linecap="round" stroke-linejoin="round"/>
<path d="M14.1119 33.3467C13.9627 33.4834 13.9627 33.764 14.1119 33.8987" stroke="#87AB24" stroke-width="1.2" stroke-miterlimit="10" stroke-linecap="round" stroke-linejoin="round"/>
<path d="M14.1094 33.8989L15.3899 35.0604" stroke="#87AB24" stroke-width="1.2" stroke-miterlimit="10" stroke-linecap="round" stroke-linejoin="round"/>
<path d="M15.3918 35.061C15.4885 35.1466 15.6176 35.1466 15.7127 35.061" stroke="#87AB24" stroke-width="1.2" stroke-miterlimit="10" stroke-linecap="round" stroke-linejoin="round"/>
<path d="M15.7194 35.0597L16.2576 34.5687" stroke="#87AB24" stroke-width="1.2" stroke-miterlimit="10" stroke-linecap="round" stroke-linejoin="round"/>
</svg>
