<svg width="50" height="50" viewBox="0 0 50 50" fill="none" xmlns="http://www.w3.org/2000/svg">
<path d="M2.35159 24.7874C2.35159 37.3698 12.5675 47.5748 25.1758 47.5748C37.7841 47.5748 48 37.3698 48 24.7874C48 12.2051 37.7841 2 25.1758 2C12.5675 2 2.35159 12.2051 2.35159 24.7874Z" fill="#FFD4E5" stroke="#FCF0F4" stroke-width="4"/>
<path d="M24.5868 18.6923C22.739 18.6923 21.2354 17.1915 21.2354 15.3465C21.2354 13.5014 22.7384 12 24.5868 12C26.4346 12 27.9376 13.5008 27.9376 15.3465C27.9376 17.1915 26.4346 18.6923 24.5868 18.6923ZM24.5868 13.3277C23.4722 13.3277 22.5657 14.2335 22.5657 15.3465C22.5657 16.4595 23.4722 17.3646 24.5868 17.3646C25.7008 17.3646 26.6073 16.4595 26.6073 15.3465C26.6073 14.2335 25.7008 13.3277 24.5868 13.3277Z" fill="#FF0066"/>
<path d="M17.6331 36C17.3491 36 17.0942 35.8194 17.0031 35.5471C16.9063 35.2591 17.017 34.9426 17.2725 34.7778C17.2833 34.7708 18.1563 34.2074 19.4607 33.4191C17.1049 32.3522 15.7145 31.1003 15.5918 29.9008C15.526 29.2565 15.8227 28.6912 16.4287 28.3096C16.707 28.134 17.053 28.0488 17.487 28.0488C18.8218 28.0488 21.1579 28.9059 24.4328 30.5975C27.7305 28.8724 29.987 28.0361 31.3375 28.0361C31.7816 28.0361 32.1536 28.1284 32.4414 28.3096C32.826 28.5516 33.0354 28.9211 33.0329 29.3493C33.024 30.5981 30.8612 32.2549 29.3126 33.2807C30.6714 34.1208 31.576 34.7613 31.6216 34.7935C31.8651 34.966 31.9632 35.2793 31.862 35.5597C31.7607 35.8402 31.4862 36.0202 31.1876 35.9968C28.7559 35.8181 26.4849 35.4915 24.4341 35.026C22.3845 35.4915 20.1148 35.8181 17.6831 35.9968C17.6666 35.9981 17.6502 35.9987 17.6338 35.9987L17.6331 36ZM24.7377 33.7343C25.9498 34.009 27.2441 34.2339 28.6054 34.407C28.3251 34.2339 28.0272 34.0526 27.7134 33.8676C27.5129 33.7488 27.3889 33.534 27.387 33.301C27.3851 33.0679 27.5059 32.8512 27.7052 32.7299C29.6726 31.5285 31.5001 29.9987 31.6867 29.4138C31.626 29.3898 31.5197 29.3651 31.3369 29.3651C30.5424 29.3651 28.7547 29.8111 24.746 31.9347L21.2692 33.8859C20.9764 34.0583 20.6955 34.2257 20.4304 34.3855C21.7987 34.2067 23.0968 33.9749 24.3114 33.6926C24.4594 33.6585 24.6081 33.6762 24.7371 33.7349L24.7377 33.7343ZM17.487 29.3778C17.234 29.3778 17.1473 29.4283 17.1378 29.4333C16.8955 29.5862 16.9075 29.7031 16.9139 29.7662C16.9689 30.3025 18.0747 31.4755 20.8777 32.5752C21.6115 32.1457 22.3231 31.7414 23.0063 31.3649C20.414 30.0776 18.4757 29.3778 17.4864 29.3778H17.487Z" fill="#FF0066"/>
<path d="M24.4211 29.2285C24.3249 29.2285 24.2294 29.2077 24.1402 29.1666L21.2094 27.8042C21.0481 27.729 20.9235 27.5926 20.864 27.4252C20.8413 27.362 20.42 26.1714 20.1859 24.6503C18.9359 25.6578 17.9004 26.1006 16.8534 26.1006C15.4662 26.1006 14.1181 25.3344 12.1995 23.4553C11.9743 23.2348 11.9351 22.8868 12.1059 22.6221C12.2767 22.3574 12.6094 22.2488 12.9035 22.3612C13.464 22.5766 13.9929 22.6815 14.5204 22.6815C16.224 22.6815 17.66 21.5426 19.1801 20.3374C20.179 19.5453 21.2113 18.7267 22.3854 18.1791C22.4145 18.1652 22.4449 18.1538 22.4753 18.145C23.0591 17.8904 23.743 17.7584 24.509 17.7521H24.5704C25.3915 17.7521 26.1202 17.8955 26.7364 18.1778C26.8161 18.2138 26.8932 18.253 26.9685 18.2934C28.0395 18.8575 28.9049 19.6622 29.7431 20.4404C31.0867 21.6892 32.2475 22.768 34.0428 22.768H34.0434C34.75 22.768 35.5091 22.6044 36.3656 22.2678C36.6351 22.1623 36.94 22.2419 37.1228 22.4642C37.3063 22.6865 37.3246 23.0017 37.1684 23.2443C35.8083 25.3591 34.3736 26.3868 32.7827 26.3868C31.6225 26.3868 30.4288 25.8625 29.0061 24.7103C28.8113 26.0198 28.4861 27.0077 28.4684 27.0614C28.4134 27.2281 28.2932 27.3664 28.1357 27.4454L24.719 29.1584C24.6254 29.2058 24.5229 29.2292 24.4205 29.2292L24.4211 29.2285ZM22.0318 26.7215L24.4097 27.8276L27.2836 26.3868C27.4322 25.8707 27.7472 24.6428 27.8092 23.3302C27.8213 23.0712 27.9832 22.8438 28.2236 22.7459C28.4646 22.6486 28.7392 22.6998 28.9283 22.8773C30.5167 24.3661 31.7414 25.0596 32.782 25.0596C33.4836 25.0596 34.1712 24.7242 34.8607 24.0421C34.583 24.0787 34.311 24.097 34.0428 24.097H34.0421C31.7237 24.097 30.2561 22.7333 28.8366 21.4138C28.0623 20.6943 27.2621 19.9509 26.3404 19.4651C26.2841 19.4348 26.2341 19.4095 26.1822 19.3855C25.74 19.1828 25.1979 19.0804 24.5704 19.0804H24.5198C23.9062 19.0855 23.3773 19.1891 22.9484 19.3893C22.9231 19.4013 22.8978 19.4108 22.8719 19.4196C21.868 19.9029 20.9222 20.6532 20.0063 21.379C18.4627 22.6032 16.8692 23.8671 14.8665 23.9997C15.6281 24.5329 16.2626 24.7748 16.8528 24.7748C17.7909 24.7748 18.8075 24.1911 20.2536 22.8236C20.4421 22.6461 20.7167 22.593 20.9577 22.6891C21.1981 22.7851 21.3613 23.0118 21.3752 23.2702C21.4536 24.7476 21.8541 26.1594 22.0318 26.7234V26.7215Z" fill="#FF0066"/>
</svg>
